<?xml version="1.0" encoding="utf-8"?>
<!-- Generator: Adobe Illustrator 27.7.0, SVG Export Plug-In . SVG Version: 6.00 Build 0)  -->
<svg version="1.1" id="Layer_1" xmlns="http://www.w3.org/2000/svg" xmlns:xlink="http://www.w3.org/1999/xlink" x="0px" y="0px"
	 viewBox="0 0 158 58" style="enable-background:new 0 0 158 58;" xml:space="preserve">
<style type="text/css">
	.st0{fill:#2A2E36;}
</style>
<g>
	<polygon class="st0" points="57.8,36.2 39.2,36.2 39.2,31 50.7,31 50.7,27.4 39.2,27.4 39.2,22.9 57.6,22.9 57.6,19.1 34.3,19.1 
		34.3,40.2 57.8,40.2 	"/>
	<path class="st0" d="M21.2,29.3c1.2-0.1,2.1-0.5,2.7-1.1c0.6-0.6,0.9-1.4,0.9-2.4v-2.6c0-1.4-0.4-2.5-1.1-3.1c-0.7-0.7-1.9-1-3.6-1
		H0.6v21.1h18.2c2.1,0,3.6-0.3,4.7-1c1-0.7,1.5-1.7,1.5-3.1v-2.7c0-1.1-0.3-2-1-2.8C23.4,29.9,22.4,29.5,21.2,29.3z M5.5,22.7h12.6
		c0.9,0,1.4,0.1,1.8,0.3c0.3,0.2,0.5,0.6,0.5,1.2v1.8c0,0.6-0.2,1-0.5,1.2c-0.3,0.2-0.9,0.3-1.8,0.3H5.5V22.7z M20.4,34.5
		c0,0.7-0.2,1.2-0.5,1.5c-0.3,0.3-1,0.4-1.9,0.4H5.5v-5.4h12.6c0.9,0,1.6,0.1,1.9,0.4c0.3,0.3,0.5,0.8,0.5,1.5V34.5z"/>
	<path class="st0" d="M92.1,34V24c0-6.9-5.9-12.5-13.2-12.5c-7.3,0-13.2,5.6-13.2,12.5v10c0,6.9,5.9,12.5,13.2,12.5
		C86.2,46.6,92.1,40.9,92.1,34z M87.6,33.8c0,4.4-3.9,8-8.6,8c-4.7,0-8.6-3.6-8.6-8v-9.5c0-4.4,3.9-8,8.6-8c4.7,0,8.6,3.6,8.6,8
		V33.8z"/>
	<path class="st0" d="M154.2,21.8c-2.1-1.8-5.1-2.7-8.9-2.7H132v21.1h12c2.1,0,3.9-0.1,5.2-0.4c1.4-0.3,2.5-0.7,3.4-1.2
		c1.5-0.9,2.6-2.1,3.4-3.7c0.8-1.6,1.2-3.3,1.2-5.3C157.4,26.2,156.3,23.6,154.2,21.8z M150.2,34.7c-1.4,1.1-3.8,1.6-7.2,1.6h-6.1
		V23.1h8.4c2.3,0,4,0.6,5.2,1.7c1.2,1.1,1.8,2.6,1.8,4.7C152.3,31.9,151.6,33.6,150.2,34.7z"/>
	<polygon class="st0" points="119.4,33.4 102.6,19.1 99.3,19.1 99.3,40.2 103.7,40.2 103.7,25.9 120.4,40.2 123.8,40.2 123.8,19.1 
		119.4,19.1 	"/>
</g>
</svg>
