<svg width="115" height="72" viewBox="0 0 115 72" fill="none" xmlns="http://www.w3.org/2000/svg">
<g clip-path="url(#clip0_300_16482)">
<path d="M65.9191 31.5276L70.8962 4.7832L19.7266 49.2903H88.4432L96.7262 4.80146L65.9373 31.5459L65.9191 31.5276Z" fill="white"/>
<path d="M96.7086 4.80122L88.4256 49.2901H19.7271L70.8967 4.80122L65.9196 31.5456L96.7086 4.80122ZM73.6396 0L69.6979 3.41379L18.5282 47.9026L14.8408 51.0974H89.9332L90.2057 49.6004L98.4887 5.11156L99.4515 0L95.5279 3.41379L68.6625 26.7444L72.695 5.12982L73.6396 0Z" fill="white"/>
<path d="M19.7266 49.2538H62.6313L70.9144 4.7832L19.7266 49.2538Z" fill="#001F60"/>
<path d="M65.9197 31.5274C65.9197 31.5274 65.0115 25.7587 65.0478 24.2435C65.066 22.9656 65.4111 13.3996 65.5565 9.41992L64.2849 10.5335C64.1941 14.2759 63.9761 23.0751 63.9035 24.1887C63.849 24.9189 62.5593 31.3449 62.5593 31.3449C62.5593 31.3449 60.1434 25.9777 59.8709 24.426C59.653 23.2029 58.999 18.0913 58.6721 15.4078L57.564 16.3753C57.9818 19.0589 58.6721 23.7688 58.7811 24.6086C58.9082 25.7222 58.5449 32.0021 58.5449 32.0021C58.5449 32.0021 55.13 26.6714 54.7485 25.7222C54.4216 24.9189 53.5133 22.0345 52.9684 20.3733L52.0783 21.14C52.5688 22.6735 53.4588 25.4118 53.695 26.142C53.9311 26.9088 55.021 33.426 55.021 33.426C55.021 33.426 50.8431 29.3002 49.9894 28.0954C49.2628 27.0183 48.5544 25.923 47.8641 24.8276L46.9741 25.5944C47.5917 26.5254 48.6271 28.0589 49.0085 28.7526C49.4445 29.5011 51.7695 35.6532 51.7695 35.6532C51.7695 35.6532 46.1203 31.8013 45.7571 31.5092C45.3029 31.1441 44.0133 29.7566 43.214 28.8986L42.3058 29.6836C43.1414 30.5599 44.5219 32.0021 44.9033 32.422C45.3756 32.9331 49.1538 38.4828 49.1538 38.4828C49.1538 38.4828 43.1777 36.2191 42.3966 35.6897L38.4367 33.0426L37.5103 33.8459C38.691 34.6309 41.0524 36.2009 41.779 36.6938C42.7417 37.3692 47.1557 41.8236 47.1557 41.8236L39.9444 40.6004C37.5103 39.7607 35.0763 38.9209 32.6422 38.0629L31.5887 38.9757C33.5141 39.6512 38.2551 41.2942 39.5448 41.7688C40.3622 42.0792 45.9387 45.4382 45.9387 45.4382C45.9387 45.4382 39.7264 45.566 38.691 45.5295C37.7828 45.5112 28.3372 44.1603 25.994 43.8134L24.668 44.9635C27.5198 45.2921 36.8382 46.4057 38.5275 46.6613C40.9616 47.282 45.5209 49.2536 45.5209 49.2536L65.9016 31.5639V31.5274H65.9197Z" fill="#FFCC05"/>
<path d="M45.5205 49.2538H88.4253L96.7083 4.7832L45.5205 49.2538Z" fill="#EE2A29"/>
<path d="M5.21324 65.0081H2.94266L2.21608 68.8783H0L2.01627 58.1258H6.68457C7.75628 58.1258 8.57369 58.3996 9.10046 58.9655C9.62723 59.5132 9.79071 60.3712 9.57274 61.5395C9.3366 62.7992 8.84615 63.712 8.10141 64.2231C7.35666 64.7525 6.39393 65.0081 5.21324 65.0081ZM5.95798 59.9878H3.86906L3.26963 63.146H5.35855C5.88533 63.146 6.32128 63.0183 6.6664 62.7627C7.01153 62.5071 7.22951 62.1055 7.33849 61.5395C7.44748 60.9736 7.37482 60.5903 7.12052 60.3529C6.86621 60.1156 6.48476 59.9878 5.95798 59.9878ZM16.9657 61.7586C17.1292 62.0507 17.2019 62.3611 17.2019 62.6714C17.2019 62.9817 17.1292 63.4929 16.9839 64.2049L16.112 68.8783H13.9867L14.895 64.0406C14.9676 63.6207 14.9676 63.2738 14.895 63C14.7678 62.6349 14.4408 62.4523 13.9141 62.4523C13.3873 62.4523 12.915 62.6349 12.5699 63C12.2248 63.3651 11.9705 63.8945 11.8433 64.57L11.0441 68.8783H8.97331L10.9896 58.1623H13.0603L12.3519 61.9594C12.7334 61.503 13.1512 61.1744 13.5689 60.9919C14.0049 60.8093 14.4408 60.718 14.8768 60.718C15.3672 60.718 15.8032 60.8093 16.1665 60.9736C16.5298 61.1379 16.8204 61.4118 17.0021 61.7586H16.9657ZM18.8003 60.9371H20.9074L19.4179 68.8783H17.3109L18.8003 60.9371ZM21.0891 59.9696H18.982L19.3453 58.0527H21.4524L21.0891 59.9696ZM22.7966 68.8783H20.7258L22.7421 58.1258H24.8128L22.7966 68.8783ZM25.5939 60.9371H27.701L26.2115 68.8783H24.1044L25.5939 60.9371ZM27.8826 59.9696H25.7755L26.1388 58.0527H28.2459L27.8826 59.9696ZM35.8387 64.8073C35.5844 66.213 35.0577 67.2718 34.2947 68.002C33.5318 68.7322 32.6599 69.0974 31.6609 69.0974C31.0251 69.0974 30.5347 68.9331 30.1714 68.6227C29.9716 68.4402 29.7899 68.2028 29.6446 67.856L28.8635 71.9817H26.8109L28.8817 60.9189H30.8616L30.6437 62.0872C30.9343 61.7404 31.2249 61.4665 31.5156 61.2657C32.0242 60.9189 32.6418 60.7363 33.2594 60.7363C34.1858 60.7363 34.9123 61.0832 35.4209 61.7586C35.9296 62.4523 36.0749 63.4564 35.8206 64.7708L35.8387 64.8073ZM32.3511 62.5801C31.6064 62.5801 31.0251 62.9452 30.6073 63.6572C30.3894 64.0406 30.2259 64.5152 30.1169 65.0994C29.9534 66.0304 30.0624 66.6694 30.4802 67.0527C30.7345 67.2718 31.0614 67.3813 31.4611 67.3813C32.0423 67.3813 32.5146 67.1623 32.9142 66.7059C33.2957 66.2677 33.5682 65.6653 33.6953 64.9168C33.8043 64.2961 33.768 63.7667 33.5863 63.2921C33.3865 62.8174 32.9869 62.5801 32.3693 62.5801H32.3511ZM44.1944 64.8073C43.9401 66.213 43.4134 67.2718 42.6504 68.002C41.8875 68.7322 41.0156 69.0974 40.0166 69.0974C39.3808 69.0974 38.8904 68.9331 38.5271 68.6227C38.3273 68.4402 38.1456 68.2028 38.0003 67.856L37.2192 71.9817H35.1666L37.2374 60.9006H39.2173L38.9994 62.069C39.29 61.7221 39.5806 61.4483 39.8713 61.2475C40.3799 60.9006 40.9975 60.718 41.6151 60.718C42.5415 60.718 43.268 61.0649 43.7767 61.7404C44.2853 62.4341 44.4306 63.4381 44.1763 64.7525L44.1944 64.8073ZM40.7068 62.5801C39.9621 62.5801 39.3808 62.9452 38.963 63.6572C38.7451 64.0406 38.5816 64.5152 38.4726 65.0994C38.3091 66.0304 38.4181 66.6694 38.8359 67.0527C39.0902 67.2718 39.4172 67.3813 39.8168 67.3813C40.398 67.3813 40.8703 67.1623 41.2699 66.7059C41.6514 66.2677 41.9239 65.6653 42.051 64.9168C42.16 64.2961 42.1237 63.7667 41.942 63.2921C41.7422 62.8174 41.3426 62.5801 40.725 62.5801H40.7068ZM45.7021 60.9371H47.8092L46.3197 68.8783H44.2126L45.7021 60.9371ZM47.9908 59.9696H45.8837L46.247 58.0527H48.3541L47.9908 59.9696ZM55.7653 63.5294L54.7662 68.8783H52.641L53.5492 64.0406C53.64 63.6207 53.64 63.3103 53.5492 63.073C53.422 62.6714 53.0769 62.4523 52.4957 62.4523C51.7872 62.4523 51.2605 62.7444 50.879 63.3469C50.6792 63.6572 50.5339 64.0588 50.4431 64.5517L49.6438 68.86H47.5731L49.0625 60.9189H51.0607L50.8427 62.069C51.1878 61.6673 51.4966 61.3753 51.7691 61.1927C52.2595 60.8641 52.8226 60.718 53.4765 60.718C54.294 60.718 54.9297 60.9371 55.3657 61.357C55.8016 61.7951 55.9288 62.5071 55.7471 63.4929L55.7653 63.5294ZM63.3762 62.2698C63.5942 62.7444 63.7032 63.2921 63.6669 63.9128C63.6669 64.2779 63.5761 64.8073 63.4489 65.4828H58.0177C57.8905 66.286 58.0359 66.8337 58.4536 67.1623C58.7079 67.3631 59.0167 67.4544 59.4345 67.4544C59.8342 67.4544 60.2338 67.3266 60.5426 67.0892C60.7061 66.9615 60.8695 66.7789 61.033 66.5416H63.1401C62.9948 67.0162 62.6678 67.4909 62.1411 67.9838C61.3236 68.7505 60.2883 69.1339 59.0712 69.1339C58.054 69.1339 57.2366 68.8053 56.5827 68.1663C55.9288 67.5274 55.7471 66.4503 56.0196 64.9899C56.2739 63.6207 56.8188 62.5619 57.6544 61.8316C58.4536 61.1014 59.489 60.7181 60.5607 60.7363C61.2147 60.7363 61.7959 60.8641 62.2682 61.1014C62.7586 61.357 63.1219 61.7404 63.3581 62.2698H63.3762ZM58.3265 64.1136H61.5416C61.6143 63.5659 61.5235 63.146 61.2692 62.854C61.0148 62.5619 60.6879 62.4341 60.2338 62.4341C59.7615 62.4341 59.3619 62.5801 59.0349 62.8905C58.7079 63.2008 58.4718 63.6024 58.3083 64.1136H58.3265ZM71.5503 58.1258H74.0752L75.8553 68.8783H73.4213L73.1488 66.6694H69.2071L68.0627 68.8783H65.7195L71.5503 58.1258ZM70.1516 64.8256H72.8763L72.3314 60.5903L70.1516 64.8256ZM77.8171 60.9371H79.9242L78.4347 68.8783H76.3276L77.8171 60.9371ZM80.1058 59.9696H77.9987L78.362 58.0527H80.4691L80.1058 59.9696ZM85.7913 60.7546L85.3917 62.8905C85.1919 62.8722 84.9921 62.854 84.8105 62.854C83.9749 62.854 83.3573 63.1278 82.9758 63.6755C82.7579 63.9858 82.5944 64.4604 82.4672 65.0811L81.7588 68.8783H79.6699L81.1594 60.9371H83.1393L82.885 62.3245C83.3028 61.7951 83.6479 61.43 83.9204 61.2292C84.3745 60.9006 84.9013 60.7363 85.537 60.7363C85.5734 60.7363 85.6097 60.7363 85.6279 60.7363H85.7913V60.7546ZM86.8631 68.8783H84.7923L86.8086 58.1258H88.8793L86.8631 68.8783ZM89.6604 60.9371H91.7675L90.278 68.8783H88.1709L89.6604 60.9371ZM91.9491 59.9696H89.842L90.2053 58.0527H92.3124L91.9491 59.9696ZM99.7236 63.5294L98.7245 68.8783H96.5993L97.5075 64.0406C97.5983 63.6207 97.5983 63.3103 97.5075 63.073C97.3804 62.6714 97.0352 62.4523 96.454 62.4523C95.7455 62.4523 95.2188 62.7444 94.8373 63.3469C94.6375 63.6572 94.4922 64.0588 94.4014 64.5517L93.6021 68.86H91.5314L93.0208 60.9189H95.019L94.801 62.069C95.1461 61.6673 95.4549 61.3753 95.7274 61.1927C96.2178 60.8641 96.7809 60.718 97.4348 60.718C98.2523 60.718 98.888 60.9371 99.324 61.357C99.7599 61.7951 99.8871 62.5071 99.7054 63.4929L99.7236 63.5294ZM107.335 62.2698C107.553 62.7444 107.662 63.2921 107.625 63.9128C107.625 64.2779 107.534 64.8073 107.407 65.4828H101.976C101.849 66.286 101.994 66.8337 102.412 67.1623C102.666 67.3631 102.975 67.4544 103.393 67.4544C103.811 67.4544 104.192 67.3266 104.501 67.0892C104.664 66.9615 104.828 66.7789 104.991 66.5416H107.098C106.953 67.0162 106.626 67.4909 106.099 67.9838C105.282 68.7505 104.247 69.1339 103.03 69.1339C102.012 69.1339 101.195 68.8053 100.541 68.1663C99.8871 67.5274 99.7054 66.4503 99.9779 64.9899C100.232 63.6207 100.777 62.5619 101.613 61.8316C102.412 61.1014 103.447 60.7181 104.519 60.7363C105.173 60.7363 105.754 60.8641 106.227 61.1014C106.717 61.357 107.08 61.7404 107.316 62.2698H107.335ZM102.285 64.1136H105.5C105.573 63.5659 105.482 63.146 105.227 62.854C104.973 62.5619 104.628 62.4341 104.192 62.4341C103.72 62.4341 103.32 62.5801 102.993 62.8905C102.666 63.2008 102.43 63.6024 102.267 64.1136H102.285ZM109.496 66.3408C109.478 66.7059 109.514 66.9797 109.641 67.1258C109.841 67.3996 110.295 67.5456 110.986 67.5456C111.385 67.5456 111.73 67.4909 111.985 67.3631C112.257 67.2353 112.402 67.0527 112.457 66.8154C112.493 66.5781 112.439 66.4138 112.257 66.286C112.094 66.1582 111.403 65.9574 110.205 65.6653C109.351 65.4462 108.77 65.1542 108.461 64.8256C108.152 64.497 108.061 64.0223 108.17 63.4016C108.315 62.6714 108.715 62.0324 109.387 61.503C110.059 60.9736 110.913 60.718 111.967 60.718C113.02 60.718 113.728 60.9189 114.273 61.3205C114.818 61.7221 115.054 62.3976 114.964 63.3834H112.893C112.893 63.1095 112.875 62.9087 112.784 62.7444C112.602 62.4706 112.239 62.3245 111.694 62.3245C111.24 62.3245 110.913 62.3976 110.695 62.5436C110.477 62.6896 110.35 62.854 110.314 63.0365C110.259 63.2738 110.332 63.4564 110.513 63.5477C110.695 63.6572 111.385 63.858 112.566 64.1318C113.347 64.3327 113.91 64.6247 114.255 65.0081C114.582 65.4097 114.709 65.9026 114.582 66.5051C114.437 67.2901 114.019 67.929 113.347 68.4402C112.675 68.9331 111.73 69.1886 110.495 69.1886C109.242 69.1886 108.37 68.9331 107.879 68.4037C107.389 67.8742 107.207 67.1988 107.353 66.3773H109.46L109.496 66.3408Z" fill="#161616"/>
</g>
<defs>
<clipPath id="clip0_300_16482">
<rect width="115" height="72" fill="white"/>
</clipPath>
</defs>
</svg>
