<?xml version="1.0" encoding="utf-8"?>
<!-- Generator: Adobe Illustrator 27.9.0, SVG Export Plug-In . SVG Version: 6.00 Build 0)  -->
<svg version="1.1" id="Layer_1" xmlns="http://www.w3.org/2000/svg" xmlns:xlink="http://www.w3.org/1999/xlink" x="0px" y="0px"
	 viewBox="0 0 1259.7 293.6" style="enable-background:new 0 0 1259.7 293.6;" xml:space="preserve">
<style type="text/css">
	.st0{fill:#F8E9B4;}
	.st1{fill:#D7B038;}
	.st2{fill:#FFFFFF;}
	.st3{fill:url(#SVGID_1_);}
	.st4{fill:url(#SVGID_00000129904991220633959410000006022609453572690317_);}
	.st5{fill:url(#SVGID_00000158022915778150609090000015347683835843821195_);}
	.st6{fill:url(#SVGID_00000081621709689001974080000014116350408062463922_);}
	.st7{fill:url(#SVGID_00000074435536030143066500000002288072675310592899_);}
	.st8{fill:url(#SVGID_00000083797971945896368980000016908244752204536705_);}
	.st9{fill:url(#SVGID_00000031185281429164321040000017143817066485425829_);}
	.st10{fill:url(#SVGID_00000034789987109618577450000002541322627623119766_);}
	.st11{fill:#DCCD8B;}
	.st12{fill:url(#SVGID_00000067220417166357908460000000195671289147588526_);}
	.st13{fill:url(#SVGID_00000072245419687257895730000001998795098164842644_);}
	.st14{fill:#A99658;}
</style>
<rect x="626.8" y="13.2" class="st0" width="1" height="274.8"/>
<g>
	<g>
		<path class="st1" d="M1002.3,105h-11.5l-11.2-48.7L967.9,105h-11.6l-14.2-60.4h10.3l10,48.3l11.9-48.3h11.4l11.4,48.3l10.2-48.3
			h9.5L1002.3,105L1002.3,105z"/>
		<path class="st1" d="M1071.8,97.5c-5.3,5.9-12.2,8.8-20.6,8.8c-8.4,0-15.3-2.9-20.6-8.8c-5.3-5.9-8-13.5-8-22.8s2.6-16.8,8-22.6
			c5.3-5.9,12.3-8.8,20.8-8.8s15.3,2.9,20.5,8.7c5.2,5.8,7.9,13.3,7.9,22.5S1077.2,91.6,1071.8,97.5L1071.8,97.5z M1064,58.2
			c-3.4-4.2-7.8-6.2-13.1-6.2s-9.5,2.2-12.7,6.4c-3.2,4.2-4.8,9.8-4.8,16.6s1.7,12.2,5.1,16.3s7.7,6.2,13,6.2
			c5.9,0,10.3-2.3,13.5-7.2c2.8-4.2,4.2-9.5,4.2-16S1067.3,62.3,1064,58.2L1064,58.2z"/>
		<path class="st1" d="M1123.6,105l-7.2-16.1c-1.8-4.1-3.5-6.6-5.2-7.6c-1.4-0.8-3.7-1.2-7.2-1.2h-2.5V105h-10.3V44.6h14.5
			c5.3,0,9,0.2,11,0.5c3.6,0.6,6.6,2.2,8.9,4.4c3.3,3.3,4.9,7.3,4.9,12.1c0,8.2-5.2,14.1-13.4,15.2c1.9,0.2,3.6,1.1,5.3,2.8
			c1.3,1.3,3,4.3,5.2,9.2l7.2,16.1L1123.6,105L1123.6,105z M1117.7,55.5c-1.2-1.2-2.8-2-4.9-2.3c-1-0.2-3.2-0.3-6.4-0.3h-4.9v19h4
			c5.8,0,9.7-1,11.8-3.1c1.8-1.8,2.7-4.1,2.7-6.9C1120,59.1,1119.2,57,1117.7,55.5L1117.7,55.5z"/>
		<path class="st1" d="M1146.2,105V44.6h10.5v51.7h24.2v8.7H1146.2z"/>
		<path class="st1" d="M1234.7,96.4c-3.7,3.7-8.2,6.2-13.7,7.3c-3.6,0.8-9,1.3-16,1.3h-13.3V44.6h15.5c6.8,0,11.9,0.4,15,1.1
			c4.9,1.1,9,3.3,12.5,6.8c5.6,5.6,8.4,12.9,8.4,21.8S1240.3,90.8,1234.7,96.4L1234.7,96.4z M1226.8,58.2c-2.4-2.4-5.2-3.9-8.6-4.6
			c-2.3-0.5-6.1-0.7-11.2-0.7h-4.8v43.7h7.2c8.1,0,14-2,17.8-6.1c3.6-3.9,5.4-9.3,5.4-16.5C1232.6,67.4,1230.7,62.1,1226.8,58.2
			L1226.8,58.2z"/>
		<path class="st1" d="M972.2,122.3v51.9h-10.5v-51.9h-17.1v-8.5h44.7v8.5H972.2L972.2,122.3z"/>
		<path class="st1" d="M1030.4,174.2l-7.2-16.1c-1.8-4.1-3.5-6.6-5.2-7.6c-1.4-0.8-3.7-1.2-7.2-1.2h-2.5v24.9h-10.4v-60.4h14.5
			c5.3,0,9,0.2,11,0.6c3.6,0.6,6.6,2.2,8.9,4.4c3.3,3.3,4.9,7.3,4.9,12.1c0,8.2-5.2,14.1-13.4,15.2c1.9,0.2,3.6,1.1,5.3,2.8
			c1.3,1.3,3,4.4,5.2,9.1l7.2,16.1L1030.4,174.2L1030.4,174.2z M1024.4,124.7c-1.2-1.2-2.8-2-4.9-2.3c-1-0.2-3.2-0.3-6.4-0.3h-4.9
			v19h4c5.8,0,9.7-1,11.8-3.1c1.8-1.8,2.7-4.1,2.7-6.9C1026.7,128.4,1026,126.2,1024.4,124.7L1024.4,124.7z"/>
		<path class="st1" d="M1091.3,174.2l-4.8-14.1h-23.7l-4.8,14.1h-10.6l22-60.4h10.8l22,60.4H1091.3L1091.3,174.2z M1074.6,125
			l-9.1,26.9h18.2L1074.6,125L1074.6,125z"/>
		<path class="st1" d="M1129.8,174.2h-10.7l-20.9-60.4h10.7l15.8,48.7l16-48.7h10.2L1129.8,174.2L1129.8,174.2z"/>
		<path class="st1" d="M1160.2,174.2v-60.4h35v8.5h-24.7v16.5h23.2v8.3h-23.2v18.4h25.4v8.7H1160.2L1160.2,174.2z"/>
		<path class="st1" d="M1207.6,174.2v-60.4h10.5v51.7h24.3v8.7H1207.6z"/>
		<path class="st1" d="M981.6,237l-4.2-12.4h-20.9l-4.2,12.4H943l19.4-53.1h9.5l19.3,53.1L981.6,237L981.6,237z M966.9,193.7
			l-8,23.7h16L966.9,193.7z"/>
		<path class="st1" d="M1043.9,237h-10.1l-9.9-42.9l-10.4,42.9h-10.2l-12.5-53.1h9.1l8.8,42.4l10.4-42.4h10l10,42.4l9-42.4h8.4
			L1043.9,237z"/>
		<path class="st1" d="M1095.2,237l-4.2-12.4h-20.9l-4.2,12.4h-9.3l19.4-53.1h9.5l19.4,53.1L1095.2,237L1095.2,237z M1080.4,193.7
			l-8,23.7h16L1080.4,193.7z"/>
		<path class="st1" d="M1140.8,237l-6.4-14.2c-1.6-3.6-3.1-5.8-4.5-6.7c-1.2-0.7-3.3-1-6.4-1h-2.2V237h-9.1v-53.1h12.8
			c4.7,0,7.9,0.2,9.6,0.5c3.2,0.6,5.8,1.9,7.8,3.9c2.9,2.9,4.3,6.4,4.3,10.7c0,7.2-4.5,12.4-11.8,13.4c1.7,0.2,3.2,1,4.7,2.5
			c1.1,1.1,2.6,3.8,4.5,8.1l6.4,14.2h-9.7V237z M1135.6,193.5c-1-1-2.5-1.8-4.3-2c-0.9-0.2-2.8-0.2-5.6-0.2h-4.3V208h3.5
			c5.1,0,8.5-0.9,10.4-2.7c1.6-1.6,2.4-3.6,2.4-6.1S1136.9,194.8,1135.6,193.5L1135.6,193.5z"/>
		<path class="st1" d="M1196.7,229.5c-3.3,3.3-7.2,5.4-12,6.4c-3.2,0.7-7.9,1.1-14.1,1.1h-11.7v-53.1h13.6c6,0,10.4,0.3,13.2,1
			c4.3,1,8,2.9,11,6c4.9,4.9,7.4,11.3,7.4,19.2S1201.6,224.5,1196.7,229.5L1196.7,229.5z M1189.7,195.9c-2.1-2.1-4.6-3.4-7.6-4.1
			c-2-0.4-5.3-0.6-9.9-0.6h-4.2v38.5h6.3c7.1,0,12.3-1.8,15.7-5.3c3.2-3.4,4.8-8.2,4.8-14.5C1194.8,203.9,1193.2,199.3,1189.7,195.9
			L1189.7,195.9z"/>
		<path class="st1" d="M1239.3,233.7c-3.3,3-7.7,4.5-13.3,4.5c-4.2,0-8.3-1-12.1-2.8c-2.4-1.2-4.1-2.2-4.9-3.2l4.2-6.4
			c4.5,2.9,8.7,4.5,12.4,4.5c6,0,9.4-3,9.4-7.8c0-2.3-1.2-4.3-3.6-5.9c-0.7-0.5-3.2-1.7-7.4-3.5c-3.9-1.8-6.7-3.3-8.2-4.5
			c-3.4-2.9-5.2-6.4-5.2-10.8s1.6-8,4.9-10.8c3.3-2.8,7.4-4.2,12.6-4.2c4.1,0,8,0.9,11.5,2.7c1.8,1,3.3,1.9,4.3,2.9l-4.3,5.9
			c-3.3-2.6-6.9-4-10.8-4c-5.3,0-9.1,2.7-9.1,6.8c0,1.8,0.8,3.4,2.3,4.5c1,0.8,3.6,2.1,7.5,3.7c4.9,2.1,8.3,4,10.3,5.8
			c3.1,2.8,4.6,6.4,4.6,10.7C1244.2,226.7,1242.6,230.7,1239.3,233.7L1239.3,233.7z"/>
	</g>
	<g>
		<path class="st1" d="M765.1,210.3c-47.1,0-85.3-38.2-85.3-85.3c0-3.7,0.2-7.3,0.7-10.8c0.1-0.9,0.2-1.7,0.4-2.6
			c4.7-30,25.2-54.9,52.6-65.8c0.7-0.3,1.4-0.5,2.1-0.8c9.2-3.4,19.2-5.3,29.6-5.3c2.9,0,5.9,0.2,8.7,0.4c0.6,0.1,1.3,0.1,1.9,0.2
			c5.7,0.7,11.2,2,16.5,3.8c0.6,0.2,1.3,0.4,1.9,0.7c32.8,11.9,56.3,43.3,56.3,80.2C850.4,172.2,812.2,210.4,765.1,210.3"/>
		<path class="st2" d="M765.1,206.8c-45.2,0-81.8-36.6-81.8-81.8c0-3.5,0.2-7,0.7-10.4c0.1-0.8,0.2-1.6,0.4-2.5
			c4.6-28.8,24.1-52.6,50.5-63.1c0.7-0.3,1.3-0.5,2-0.8c8.8-3.3,18.4-5,28.3-5c2.8,0,5.6,0.2,8.4,0.4c0.6,0.1,1.2,0.1,1.8,0.2
			c5.4,0.7,10.7,1.9,15.8,3.6c0.6,0.2,1.2,0.4,1.8,0.6c31.5,11.4,53.9,41.5,53.9,76.9C846.9,170.2,810.2,206.8,765.1,206.8"/>
		<g>
			<polygon class="st1" points="753,74.5 753.8,74.5 753.1,76.3 754,75.1 753.7,75.6 754.4,75.5 753.8,77.3 756,76.9 755.4,77.5 
				755.7,78.1 756.3,77.9 756.1,79.1 754,79.9 754.6,79.7 754.8,80.3 753.2,81.3 755.2,82 756.2,81.6 755.6,82.2 754.4,82.3 
				752.5,83.9 754.8,83.6 755.1,83.1 756.2,83.1 760.1,82.6 760.7,82.1 759.8,81.8 761,80.9 761.1,80 759.3,79.9 759.7,79.3 
				758.9,78.7 759.4,78.5 758.1,77.4 757.7,76.1 756,75.4 756.7,75 756.4,74.8 757.2,74.2 757.6,73.1 755.2,73.2 755.6,72.9 
				755.3,72.7 756.4,72.1 756.2,71.8 754.5,71.9 754.1,72.3 754.1,72.7 753.4,73.2 753.7,73.6 			"/>
			<polygon class="st1" points="751.9,80.8 752.5,78.2 753.3,77.5 752.7,76.6 751.6,76.8 751.4,76.3 751.2,76.9 751.2,76.5 
				750.5,76.6 749.8,77.3 750.4,77.4 749.9,77.9 748.6,77.8 748.1,78.2 748.7,78.5 748.1,78.8 748.3,79.2 749.3,79.4 748.2,80.2 
				749.4,80.1 747.5,80.8 748.1,81 747.5,81.3 748.2,81.3 747.7,81.7 			"/>
			<path class="st1" d="M740.6,58.9l-3-0.2l-2.6,0.4l1.5-0.4l-2.2-0.1l0.8-0.2l0.1-0.4l2.7-0.3l-1.6-0.3l-0.4-0.3l0.2-0.2l2.5,0.6
				l0.9,1h0.8l0.2-0.4l0.8,0.4l-0.4-0.7l0.5-0.6l-0.9,0.3l0.7-0.5l-1.1,0.2l0.7-0.4l-1.7-0.6l-0.9,0.4l0.2-0.4l0.8-0.2l-1.9-0.2
				l1.8-0.3l-1.6-0.3l0.8,0.1l1.8-0.7l1.4,0.7l1.8-0.3l0.2-0.4l-1.6-0.7l0.5-0.2l2.6,0.2l-1.6-0.2l0.4-0.4H743l0.9-0.2l-1.1-0.3
				l2.1,0.4l0.3-0.7l-1.3-0.5l1.2-0.2l-1.7-0.2l-0.7-0.5l4.1-0.3v-0.3l-1.9-0.2l0.4-0.2l-0.3-0.2l1.2-0.1l-1.2-0.3l-1.1,0.4l1.2-0.9
				l-0.2,0l0.2-0.2l2-0.5l-0.7,0.2l0.4-0.5l1.8-0.4l-2.3,0.2l-0.1-0.3l3.6-0.5h-4.2l5.4-0.3l-0.1-0.3l2.4-0.4l-2.6-0.7h-0.1
				c-0.4,0-0.9-0.2-1.3-0.4c-0.4-0.2-0.8-0.4-1.2-0.4c-0.1,0-0.1,0-0.2,0l0.6,1.7l-2.2-1.5c-14,3.1-26.7,10-37,19.5l0.8,1.6l0.5,0.2
				h-0.4l0.2,0.3l-1.1,0.4c-0.1,0.2-0.3,0.3-0.4,0.5l0.1,1.1l0.5,0.2l-0.4,0.3l0.6,0.5l-0.3,0.2l0.8-0.2l-0.6,0.3l0.3,0.3l-0.3,0.2
				h1l-0.9,0.2l1.2,0.5l-0.7,0.3l2.9-0.2l-0.5,0.3l0.8,0.3L713,72l0.4,0.2l1.7-0.2l-0.4-0.5l0.8-0.1l1.5-1.6l0.1-0.9l-0.3-0.3
				l1.3-0.4l-0.3-0.3l0.7,0.1l-0.1-0.4l1-0.2l-0.5-0.4l0.8,0.1l0.1-0.5l-0.7-0.2l1.2-0.1l-0.7-0.7l0.3-0.3l0.9,0.1l0.5-0.2l-0.4-0.4
				l0.6-0.2h1.4l0.1-0.4h0.3l0.4-0.6l0.6,0.2l-0.8,0.4l0.4,0.2l0.2-0.3l1.1,0.3l0.4-0.7l1,0.1l1.5-0.9l0.7-0.9l1.3-0.4l-0.1-0.8
				l0.6,0.7l1.4-0.1l0.5-0.3l3.5-0.3L740.6,58.9L740.6,58.9z"/>
			<polygon class="st1" points="776.9,46.9 776.2,47 776.9,47.2 779.4,47.1 777.6,47.4 781.2,47.7 782.5,47.5 783.6,46.9 
				781.4,46.8 781.7,46.5 780.2,46.8 780.4,46.4 780,46.3 779.7,46.9 777.4,46.3 777.3,46.5 777.6,46.7 777,46.5 777.3,46.9 
				775.7,46.8 			"/>
			<polygon class="st1" points="771.2,47.6 771,47.9 771.6,48.1 770.7,48 772.3,48.4 771.6,48.5 772.1,48.8 773.5,48.6 773.3,48.5 
				773.5,48.2 774.1,48.1 774.3,48.5 775.1,48.2 775,48.5 775.7,48.6 772.6,49 772.9,49.3 775.4,49.1 773.7,49.4 774.7,49.6 
				773,49.5 773.3,50 775,50.1 774.3,50.2 775,50.7 775.6,50.6 776.2,49.7 776.1,49.6 776.6,49.6 776.7,49 777.2,49 777.2,48.6 
				779.2,48.2 776.9,47.7 776.6,47.3 775.8,47.5 776.1,47.1 774.8,46.9 774.3,47.1 774.9,48 773.5,47.1 772.8,47.4 773.1,47.7 
				771.5,47.4 772.7,47 770.1,47.4 770.6,47.8 			"/>
			<path class="st1" d="M821.5,178.9l0.4,0.7l0.4-0.7l-0.6-3.6l-0.9-1.2l-0.5,0.3v1.3l-0.8,0.8l-0.4-0.2l0.1,0.9l-0.4,0.3l0.4,0.4
				l-0.8,0.5l-0.2-0.4l-0.1,1l-0.5-0.3l-0.5,0.5l0.2,0.7l-0.7-0.5l-2.2,0.8l-0.8,1.9l0.7,3.4l-1.8,3.1l0.3,3.2l2.9-1.6
				c2.2-1.7,4.8-4,6-5.1c0.2-0.2,0.4-0.4,0.6-0.6l-0.9-3.7L821.5,178.9L821.5,178.9z"/>
			<path class="st1" d="M812.9,57.8l-5.2,2l-0.3,0.8l-0.9,0.4l-1.9-1l1.5-0.4l-0.4-0.5l-3.2-0.6l0.9,0.4l0.1,1.3l0.8,0.4l0.1,1.5
				l-2.1-0.9l-2.1,1.2l1.4,1.5l-2.9-0.2l0.2-0.2l-1.6-0.5l-0.1,0.7l1.3,0.3l0.5,0.8l-0.7,0.2l-3.1-1l0.1-0.5l-0.6-0.6l0.3-0.7
				l-3-1.5l7,1.3l2.1-0.9l0.1-0.4l-0.4-0.7l-5.5-1.9l-2.8-0.2l-0.9-0.3l0.9-0.2l-1.2-0.3l-0.2,0.3l-0.7-0.2h-0.1l-1.2,0.2l0.2-0.3
				l-1.2-0.3l2.1-0.3l-1.8-0.5l-1,0.4l0.2-0.2l-0.4-0.2l0.5-0.3l-0.9-0.2l-0.4,0.8l-0.4,0.2l-0.1-0.7l-1.2,1l0.5-1l-0.8-0.2
				l-1.5,1.2l-1.6-0.3l0.5,0.7l-0.8-0.3l-1.1,0.9L780,57l-0.5,0.6l-0.1-0.4H779l-0.1,0.3l0.4,0.3l-1.2-0.3l-0.6,0.6l0.2,0.3
				l-1.1,0.3l1,0.1l-1.2,0.2l0.1,0.4l-0.5-0.2l-0.6,0.7h0.5l-1.1,0.2l-1.2,0.9l0.1,0.6l-0.8,0.4l0.6,0.1l-0.7,0.3l0.2,0.3l-0.3-0.3
				l-0.2,0.4l0.3,0.2l-1,0.3l0.3,0.2l-0.3,0.3l-0.5-0.1l-1.2,1l0.4,0.4l-2.6,0.7l-0.6,0.2l0.6,0.4h-1.2l0.2,0.4l-1.5,0.1l1.3,0.3
				l-1.4,0.2l0.3,0.1l-0.3,0.7l1.5-0.3l0.5,0.3l0.5-0.5l-0.2,0.4h0.3l-0.8,0.5l-1.9-0.1l0.1,0.4l0.5-0.1l-0.6,0.4l0.4,0.1l-0.1,0.5
				l0.9-0.9h0.8l-1.3,1.1l0.6,0.1l-1.2,0.4h1.2l-1,1l1.3,0.5l-0.1,0.3l1.1,0.1l2-1.5l0.7,0.1v-0.9l0.3,0.2l0.2-0.5l0.1,0.9l0.5,0.2
				v0.9l0.8,0.9l-0.1,0.7l1.1,1.1l-0.4,0.4l0.5,0.9l-0.2,0.2l1.4,0.1l0.3-0.9l1.7-0.2l0.7-1.8l0.1-1.2l-0.3-0.2l0.4-0.1l-0.7-0.2
				l2.5-0.9l-0.7-0.1l0.9-0.7l-1.4-1l-0.3,0.3v-2.8l1-0.5l3.2-1.9l-0.4-0.5l0.3-0.7l0.6-0.3l-0.3-0.3l2.2-0.2l1.3,0.6l0.3,0.7
				l-0.9,0.2l-2.8,2.3l-0.6,0.5l0.8,1.5l-0.3,1.1l1.6,0.4l0.4,0.5l-0.2,0.2l4.9-1l1-0.2v0.5l1.8,0.5l-2.2,0.2l-0.3,0.4l-2.2-0.3
				l-2.2,0.7l0.2,1.1h0.9l-0.2,2l-1.8-1.1l-0.9,0.2l-0.7,1.1l0.3,2.6l-0.6-0.2l0.4-0.9l-1.6,1.8l-0.9,0.2l-0.2-0.7h-1.6l-3.4,1.4
				l-1.4-0.8l-0.5,0.4l0.3-0.2l-2.1,0.7l0.3-0.5l-1.1-0.1l-0.5-0.7l0.1-1.2l1.4-0.8l-0.9-0.4l0.4-1.6l-2.3,1.1l-0.3,1.9l0.6,0.3v0.6
				l0.3,0.5l-0.3,0.3l0.4,0.7l-0.5,0.1l0.1,0.7l-1.1-0.6l-0.8,0.4l0.5,0.3l-0.4-0.1h-1.8l-0.2,1.4l-0.3-0.2v-0.6l-1,1.4l0.9,0.3
				l-1.6,0.6l-0.9,0.3l-1,0.2l-0.2,1l-1.6,0.7l0.3,0.4l-1.8,0.1l-0.9-0.5l0.4,1.6l-2.2-0.2l-1.5,0.4l0.3,1l3,0.9h-0.4v0.6l1,0.7
				l0.4,1.5l-0.3-0.3l-0.7,2.7l-0.6,0.3l-7.4-0.4l-1.4,1l0.7,1l-0.3,0.7l0.1,1.3l-1.2,3.2l0.9,0.3l-0.3,2.2l1.8-0.2l1,0.2l1.3,1.5
				l1.5-0.8l2.8-0.2l2.7-2.8l-0.4-1l1.5-2.1l2.8-1.5l0.1-0.9l0.1-1.2l1-0.4l1.2,0.2l1.3,0.4l1.6-1.1l1.5-0.9l1.6,0.7L772,95l5.3,3.4
				l0.8,1.9l-0.6,0.9l0.4,0.4l1.3-1.7l-0.1-0.6l-0.7-0.4l0.3-0.9l0.5-0.3l1.5,1l0.1-0.3l-0.6-0.9l-2.5-1l0.1-0.8l-0.9,0.2l-0.6-0.4
				l-1.5-2.2l-1.3-0.8l-0.3-1.8l1.6-0.3l0.3,1l0.9-0.6l1.7,2.6l1,0.2l0.8,0.6h-0.6l2.8,1.6L782,96l-0.3,2l1,1.1l1.2,1l-0.4,0.2
				l0.6,0.8h1.8l1.7,1l-0.1-0.8l-1.8-1.1l0.5-0.1l-0.1-0.5l0.4,0.2l-0.9-1.2v-0.9l1.1,0.9l-0.2-0.4l0.7,0.4l-0.2-0.7l0.6,0.3
				l-0.8-0.7l0.8-0.4l2.1,0.3l0.9,0.1l-0.7,0.9l1.6-1.3l1.6-0.1l0.1-0.3l-1-0.4l-0.3-0.5l-0.7-0.9l1.2-1.9l0.2-1.8V92l0.7-0.5
				l0.1-0.8l0.9-1l-0.3-0.4l0.4,0.2l1.5-0.9l0.4,0.5h-0.7l0.5,0.1l-0.3,0.3l2.2,0.3l-1.2,0.9l1,0.3l0.2,0.9l0.7,0.2l1.6-1l1.1,0.1
				l0.1-0.6l-1.8,0.2l-0.7-0.9l-1-0.4l0.5-0.2l0.9,0.7l0.2-0.9v0.5l0.8-0.8l3.7-1l0.3,0.3l-0.9,0.6h-0.9l0.9,0.9l-2,1.3l5.9,3.5
				l0.6,1.1l-0.1,0.7l-1.3,0.9l-2.7,0.1l-2.2-0.5l-1.6-1.1l-2.1,0.1l-2.6,1.5l-2.3-0.3l0.1,0.5l0.8,0.3l-3.7,0.4l-0.4,0.6l-0.3,0.8
				l0.9-0.1v1.3l0.4,0.3l-0.8-0.3l-0.1,0.6l1,0.3l0.3,1.5l1.2-0.1l-1,0.6l1.4-0.3l1.7,1l1.3-1l2.4,1.3l2.1-1.2l1.1,0.4l0.6-0.4v1.6
				l0.2,1.6l-1,2.4l-1,2.7L799,112l-1.2-0.3l-0.4-0.4l-1.5,0.1l-2.1,1l-4.9-1.3l-2.5-0.8l-0.4-0.8l-2.4-0.1l-1.2,1l-0.1,2.1
				l-1.2,0.6l-1.6-1l-2.3-0.6l-0.8-1.5l-4.7-1.2l-1.8-1.2l1.6-1.9l-0.8-1.4l0.6-1.3l-0.7,0.3l-1-0.8l-1.2,0.5l-4.6,0.1l-4.6,0.6
				l-4.1,2.2l-2.9-0.2l-1.2-1.1l-0.6,0.3l-1.2,2.4l-3.2,2.4l-1,1.7l0.1,1.9l-0.5,0.8l-0.4,0.6l-3.5,2.2l-0.7,1.4l-1.3,1l-0.5,1.6
				l-2.7,4.2l-0.4,1.7l0.9,1l-0.4,1.5l0.5,1.3l-0.8,3.6l-0.5,1.4l-0.9,0.6l1.3,1.7l-0.3,0.8v0.9l1.1,1.1l1.3-0.4l-0.8,0.4l0.5,1.1
				l2.3,2.8l0.4,1.8l1.9,1.4l2.8,2.8l2.3,1l3.6-1l2.2,0.1l1.5,0.6l4.2-2.1l0.9-0.2l1.1-0.1l1.9-0.1l0.9,0.8l0.6,0.6v0.9l1,0.8
				l2.8-0.8l0.8,0.9l0.9,0.2l0.3,1.1l-0.3,1.6l-0.5,1.4l0.3,0.3l-0.3,0.7l0.7,0.5l-0.8-0.1l-0.1,1l-0.6,0.5l0.7,1.7l2.4,3.1l1.2,1.6
				l0.3,1.1l0.1,0.6l1.2,3l-0.3,1.4l0.9,2.8l-0.2,1.8l-1.6,2.2l-0.9,5.3l0.1,1.2l3.4,6.6v2.4l0.9,4.8l1.7,1.9l1.8,5.3c0,0,0,0,0.1,0
				c0.5-0.1,1-0.2,1.5-0.3c2.6-0.5,7.9-1.8,13.8-4.1c1-0.4,2-0.8,3-1.3l0.9-3.4l-0.5-0.2l0.4-0.6l2.6-1.1l0.9-1l0.3-2.9l-1-2.3
				l0.1-1l3.6-3.4l2.1-0.9l2-2.2l0.3-7.7l-0.7-0.6l-0.5-1.6l0.2-2.7l-0.9-1.2l0.6-2.5l1.4-2.9l1.6-1.6l1.4-2.1l4.2-3.6l2.4-2.8
				l1.6-2.4l1.6-3.8l0.9-3l0.6-0.1l-0.4-0.2l0.2-2l-0.7-0.3l-1.9,0.8l-6.2,1.6l-1.6-1.6l-0.9-0.2l1-0.7l-0.4-1.2l-2.4-2.6l-1.4-0.5
				l-0.4-0.9l-0.3,0.4l-1.8-4.3l-1.5-1.3l-0.9-4.6l-1.6-1.6l-0.3-1.1l0.4-0.1l-0.8-0.8l-2.4-5.2l-1-1.4l-0.3-1.6l2.1,3.3l0.4-0.2
				l0.5-2.2h0.2l-0.3,2h0.7l3.2,5.5l1.3,0.8l0.9,2.1l0.4,2.6l2.1,1.7l2.5,4.7v1.6l1.3,3.9h1.8l1.1-1l3.8-1l1-1l3.5-1.3l0.1-0.9
				l0.9-0.6l2.4-0.5l0.8-1.3l1-0.3l0.4-1.1l1.3-0.5l0.1-2l0.7-0.1l1.4-3l-1.5-1.6L830,122l-0.8-1l-0.2-1.1l0.1-1l-0.4,0.3l-2.4,2.9
				l-2.7,0.1l-0.7-0.4l0.1-0.5l0.1-1.8l-0.6-0.4l-0.4,2.1l-1-1.6l-0.2-1.4l-2.3-2.8l-0.9-1.1l0.7-0.5l-0.4-0.4l0.7-0.1l0.3-0.8
				l0.9,0.9l0.5-0.3l2.2,3.4l2.9,1.7l1.3,0.2l2.2-0.9l0.6,0.3l0.9,1.8l5.4,0.8l4.3-0.2l1.9-0.1l1.6,2.2l0.7,0.2l1.3,1.4l1.5-0.2
				C847.2,96.7,833.6,72.6,812.9,57.8L812.9,57.8z M792.5,70l-1.3-1.9l0.9-0.5l1.6,0.7l0.6,0.9L792.5,70L792.5,70z"/>
			<polygon class="st1" points="792.1,67.5 791.2,68.1 792.5,70 794.3,69.1 793.7,68.2 			"/>
		</g>
		<g>
			<path class="st0" d="M915.3,194c-5.1-7.6-11.9-17.3-11.9-17.3l-7.6-11.8l6.3-16.2c23.2-19.9,33.5-30.5,30.9-57.7
				c-2.6-27.2-48.5-46.2-65.2-42.4c-16.6,3.8-33.1,17.1-38,23c-4.9,5.8-0.7,6.1-1.4,11.5s-8,11-13.8,14.3c-5.8,3.3-9.1,5.2-8.9,7.5
				s6.1,6.8,6.1,6.8s-0.7,2.6-1.9,5.6c-1.2,3.1-1.6,4-0.7,5.2c0.9,1.2,8.2,4.7,8.2,4.7h-6.8c-4.5,0-4.5,3.8-2.1,6.6
				c2.3,2.8,1.4,4.2-1.4,7.5s-4.2,6.1-1.9,10.8c2.4,4.7,14.1,4.2,14.1,4.2s5.6,9.9,7.5,18.3c1.9,8.4,11.2,20.6,13.6,27.2
				c2.3,6.6-1.4,15-1.4,15c-9.4,10.7-15.2,23.2-18.4,31.7l-1.5,4.2C858.7,246.9,893,225.1,915.3,194L915.3,194z"/>
			<path class="st0" d="M793.4,233.1c0,0-1.4-12.2-2.2-14.4s-7.3-10.5-7.3-10.5c-5.6,1.4-14,1.9-14,1.9s-9.8-15.3-11.6-18.6
				s-11.3-11.7-15.7-16.4c-4.4-4.8-6.9,1.1-5.8,5.8c1.1,4.8,7.7,13.5,8.4,16.4s-4.8,6.2-4.8,6.2s-11.7-4.4-17.9-7.3
				s-12-9.1-16.1-13.1c-4-4-11-9.1-13.1-9.1c-2.1,0-2.9,2.9-1.1,5.5s11,15.7,14.6,19.4c3.7,3.6,9.1,11.3,12,16.4
				c2.9,5.1,8.4,6.6,21.2,11s14.2,9.9,15,13.5c0.2,1,0.2,2.9,0.2,5.2c0,0.3-0.1,1.3-0.2,2.7c12.7,4,26.2,6.3,40.2,6.6l-0.9-11.4
				L793.4,233.1L793.4,233.1z"/>
		</g>
		<g>
			<path class="st2" d="M854.1,165.2c-1.9-0.8-33.7-7.1-33.7-7.1s5.6,9.4,6.2,12.9c0.6,3.5,1.6,7.6,4.1,11.6s9.8,16.6,10.3,18.8
				s-0.8,14.9-0.8,14.9l15.2-10.8c0,0-1.4-4.1-2.4-7.8c-0.9-3.6-0.3-7.9-0.1-12.5c0.1-4.6,1.4-10.1,3-14.1
				C857.5,167.2,856,166,854.1,165.2L854.1,165.2z"/>
			<path class="st2" d="M892.6,52.3c-33.2-10.3-50.8,7.6-58.4,14.9c-7.6,7.3-6.8,9.2-6.2,12.3c0.6,3.2-0.2,6.5-2.2,9.8
				c-2.1,3.3-11.4,8.2-14.2,9.5c-2.8,1.3-5.7,3.8-5.4,6.5s6,6,6,6s-1.6,4.1-3.2,7.4s-0.3,3,0.5,3.8s8.6,4.6,8.6,4.6s-4.1,0-7-0.2
				c-2.9-0.2-3,0.3-3.3,1.7c-0.4,1.6,0.8,4.3,1.9,6c1.1,1.7-0.2,4-1.4,5.7c-1.3,1.7-5.2,4.9-2.9,10.9c2.4,6,15.6,4.7,15.6,4.7
				c-9.2-0.3-6.5-5.2-1.9-9.9c2.1-2.2,10-7.9,13.3-10.6c3.3-2.7,6.5-3,1.4-7.9c-8.8-8.5-3.5-10.4-0.2-13c3.3-2.5,12.5-5.8,13.8-9
				s-3.8-7.8-3.8-7.8s4.8,0.3,7.4,0.2c2.7-0.2,2.2-2.1-1.4-5.9c-3.6-3.8-4.4-6.5-4.7-10s-8.2-4-8.5-4.4c-0.3-0.5,0.6-2,1.3-2.8
				c3.4-3.9,21.1-29.2,56.3-16.6c40,14.3,40.4,46.2,40.4,46.2C936.3,89.2,925.8,62.6,892.6,52.3L892.6,52.3z"/>
		</g>
		<g>
			<path class="st1" d="M881.6,136.5c-2.7-0.4-4.9,0.5-6.4,2.2c-1.5,1.8-0.2,4.4,0.9,4.6c0.7,0.1,1.8-0.8,1.2-1.5
				c-0.6-0.7-0.4-2.4,1.3-3.2c1.8-0.8,3.4,0.1,5.2,0c2.6-0.1,6-1.4,7.8-4.2c1.3-2.1,3.1-5.3,0.9-9c-2.8-4.9-8.7-2.5-9-1.8
				c-0.9,2.2-0.3,1.7,1.1,1.1c1.3-0.6,3.7-0.7,5.6,1.9c1.4,1.9,0.4,4.6-0.7,6.3S885,137,881.6,136.5L881.6,136.5z"/>
			<path class="st1" d="M839.5,94.2c-1.3-1.2-5.2-4.3-6.3-5c-1.1-0.7-1.5,0.5-2,1.5s-0.7,3.8-0.7,4.5c0,0.6,0.8,0.6,3,1.1
				c1,0.2,8.4,0.9,8.4,0.9C841.7,96.7,840.8,95.4,839.5,94.2L839.5,94.2z"/>
			<path class="st1" d="M811.5,108.2c-1.7-0.4-1.8-0.3-1.6,0.1c0.1,0.2,2.4,1.7,3.9,2.6c1.6,0.8,2.2,1,2.6,0.8
				c0.5-0.2,1.4-0.4-0.1-1.8S813.2,108.6,811.5,108.2L811.5,108.2z"/>
		</g>
		<g>
			<path class="st1" d="M884.6,48.5c-30.7-7-53.6,19.5-56,22.5c-4,4.9-2.2,5.6-1.6,9.6c0,0,0.5,5.4-3.1,9.1
				c-2.7,2.9-8.3,6.1-12.1,8.2c-3.8,2.2-6.5,2.9-7,5.1s-1.1,3.3,4.4,7l2.3,2c-0.7,1.9-0.7,2.1-2.1,4.9c-1.3,2.5-3.1,5.1-0.7,6.2
				c2.3,1.1,7.2,3.6,7.2,3.6s-5.6-0.4-6.7-0.4c-1.1,0-2.3,0.8-2.6,2.6c-0.3,1.6-0.5,2.5,1.3,4.6c1.8,2.2,1.6,4.1-0.2,5.8
				c-1.8,1.6-5.9,5.8-4.7,10.6c1.3,5.2,3.9,6.9,13.5,7.7c0.4,0.1,0.8,0.1,1.2,0.1c0.2,0.2,4.5,5.8,5.7,8.4c1.3,2.7,2,6.5,3.3,11.2
				c1.1,4.2,3.7,7.8,6.7,12.3c0.4,0.5,0.7,1.1,1.1,1.6c3.4,5.2,5.4,9.9,5.6,12.6c0.2,2.5-1.2,10.3-1.4,11.4
				c-0.6,0.6-1.2,1.2-1.8,1.8c-0.6,0.6-2.1,2.1-2.8,3c-7.8,9.7-13.1,20.6-16.4,28.9c0,0.1-0.1,0.2-0.2,0.6c-0.1,0.4-0.3,0.9-0.6,1.5
				c-0.2,0.6-0.5,1.3-0.8,2.2c40.4-5,75.6-26.2,99.5-56.6c0.7-1,1.4-1.9,2.1-2.9c-0.7-1-1.3-1.9-2.1-3.1c-0.6-0.8-0.6-0.8,0,0
				c-0.2-0.3-0.5-0.7-0.7-1c-5.5-7.8-13.1-18.4-13.1-18.4c-2-3.1-4.1-5.8-3.8-7.2c0.4-1.4,3.9-13.1,5.2-14.4
				c1.3-1.3,29.9-18.7,32.7-43S924.7,57.6,884.6,48.5L884.6,48.5z M931.9,107c-1.1,9.3-6.4,22.1-29.3,38.7l-1.7,1.3
				c-1.4,2.8-6.1,16.9-6.1,16.9c-0.5,1.2-0.4,3.1,2.4,7c0.6,0.8,7.6,10.8,13.2,18.8c1,1.4,1.9,2.8,2.8,4.1
				c-22,28.1-53.6,48.5-91.3,55.6c0.3-0.9,0.7-1.8,0.7-1.9c4.2-10.7,9.1-19.6,15-26.1c14.4-16.2,33.2-21.6,44.7-23.3
				c3-0.5,5.6-0.7,7.5-0.8c0.2,0,0.4,0,0.6-0.1c0.9-0.1,1.9,0,2-0.2c0.1-0.5-1.1-0.9-1.3-0.9c-1.1-0.3-2.9-0.4-5.4-0.2
				c-15.5,1.6-34.9,9.2-44.1,17.1c0.4-2.7,0.9-6.1,0.9-8.2c0-0.2,0.1-1.9,0.1-2.1c-0.2-3.1-2.7-7.8-5.9-12.9
				c-0.2-0.4-0.5-0.7-0.7-1.1c0,0-6.5-9.1-7.2-13.5s-0.2-5.1-1.2-7.3c-1.1-2.4-2.7-6-5.2-9.8c4.6,0.2,16.7,0.5,18.5,0.7
				c2.2,0.2,10.1,1.1,14.3,1.1c5.7,0,9.4-1.2,13-9.9c0,0,0.9,1.4,3.4,2.6c2.5,1.2,7.6-1.4,9.6-2.5c3.6-1.9,13.8-8.1,16.6-13.4
				c2.8-5.3,3.4-14.3-1.7-19.5c-4.3-4.3-11.8-0.2-12.4,0.2c-0.8,0.7-0.9,0.7-0.4,1.9c0.3,0.7,0.6,0.5,1.6,0c1.2-0.6,7.4-2.8,9.8,0.3
				c2.5,3.3,3.5,8.3,0.9,14.9c-2.7,6.6-10.1,10.4-12.1,11.6c-4.6,2.9-8.9,4.6-10.4,3.8c-1.7-0.9-3.8-1.7-3.9-6.7
				c0-0.6-0.9-0.5-1.4,0.4c-0.6,0.9-2.6,5.8-4.8,9.2c-1.5,2.2-3.6,4.1-10.2,3.8c-7.4-0.2-12.5-0.7-15.8-0.9
				c-3.1-0.2-22.4,0-27.2-1.6c-2.1-1.1-3.2-2.4-3.6-4.2c-1-4.7,0.8-6.8,3.2-8.9c1.5-1.4,2.6-3,2.6-4.7c0-1.6-3.1-3.6-3.4-4.6
				s0.2-2.4,0.6-3c0.7-1.1,10.7,0.5,10.9-0.5c0.3-1-9.7-5.5-10.1-6.5c-0.4-1,0.3-2.6,0.8-3.5s2.6-6.7,2.6-6.7s-3.5-2.6-3.6-2.7
				c-2.7-1.8-2.4-2.8-2.4-3.4c0-0.9,0.2-1.9,0.5-2.3c1.5-2,13.6-7.1,16.6-10.2c2.9-3.1,5-5.2,5.1-8c1.5,0.1,6,3.5,7.3,4.4
				c0.9,0.6,2.9,2.1,3.1,2.3c0.2,0.2,0.8,0.5,0.8,0.5c-1.4-2.3-8-8.2-9.8-10c-1.3-1.3-2.1-3.5-1.9-5.1c0-0.3,0.1-0.6,0.1-0.8
				c0.3-0.7,0.7-1.4,1.4-2.3c0.9-1.2,23.2-28.3,52.9-21.5c18.1,4.2,31.4,11.7,39.8,22.3c6.1,7.7,9.2,17,9.2,27
				C932.2,103.1,932.1,105,931.9,107L931.9,107z"/>
			<path class="st1" d="M753.9,245.8c0,0.7-0.1,1.5-0.1,2.4c13.7,4.1,28.2,6.2,43.2,6.2c-0.1-0.7-0.1-1.4-0.2-2.1
				c0-0.4-0.1-0.7-0.1-1.1c-1.1-10.8-2.5-23.7-3.6-30.5c-1.1-6.4-4.4-8.7-7.8-12.8l-2.9,0.6c0,0,6.1,6.9,6.9,8.9
				c0.6,1.4,2.4,15.7,3.8,33.8c-4.2-0.1-8.6-0.3-12.7-0.7c-0.1-1.8-0.2-3.1-0.2-3.2c-0.7-9.5-1.4-20.4-1.6-22.7
				c-0.5-4.2-2.5-8.7-11.5-20.9c-6.2-8.5-7-11.9-8.2-14.2c-0.5-1-1.2-1.8-2.4-2.7c-4-3-11.2-10.7-13.6-12.9c-2.5-2.2-5-3.5-7,1
				s0.9,11,4,15.5c3.1,4.5,4.3,6.1,3.8,8.9c-0.3,1.9-3.2,3.4-3.2,3.4s-10.8-4.8-15-6.6c-4.2-1.7-3.7-1-5.7-3s-9.4-8.1-10.9-9.1
				s-2.6-3.8-6.5-6.8c-4-3-7-5.7-10.5-3.7s-1.9,3.8,0.9,8.7c2.9,5.1,5.8,8.4,9.5,13.1c3.7,4.7,8.6,9.6,10.8,12.6s6.1,12.1,12.1,14.1
				s22.2,8,25.4,11.4c0.2,0.3,0.5,0.5,0.7,0.8c1.9,1.9,3,3.3,2.7,11.2C753.9,245.6,753.9,245.7,753.9,245.8L753.9,245.8z
				 M753.1,232.4l-0.7-0.7c-0.3-0.4-0.7-0.7-1.2-1.1c-6.2-4.7-24.4-10.8-25.3-11.1c-3.6-1.2-6.7-6.4-8.7-9.9
				c-0.8-1.3-1.4-2.4-2.1-3.3c-1.2-1.5-2.8-3.4-4.8-5.6c-2-2.2-4.2-4.7-6.1-7.1l-1.7-2.1c-2.9-3.7-5.2-6.6-7.6-10.7l-0.9-1.5
				c-0.7-1.2-1.5-2.6-1.7-3.2c0.1-0.1,0.3-0.2,0.6-0.4c1.4-0.8,2.7-0.1,6.5,2.7l1.1,0.8c2.1,1.6,3.3,3.1,4.3,4.4
				c0.8,1,1.5,1.9,2.4,2.5c1.3,0.9,8.5,6.8,10.5,8.8c1.7,1.6,2.2,1.9,4,2.6l2.6,1c0,0,14.6,5.7,14.7,6c-1.3,1.3-1.6,3-0.3,2.1
				c2.2-1.6,8.9-5,7.8-8.6c-1.2-3.6-2.6-6-4.8-9.1c-2.1-3-4.4-7.4-4.4-10.6c0-0.9,0.2-1.8,0.5-2.6c1.5-2.4,2.8-1.2,3.9,0
				c1.2,1.3,2.2,2.8,3.6,4.3c2.6,2.8,6.2,6.4,8.9,8.5c0.6,0.4,0.9,0.8,1.2,1.1c0.5,0.6,0.7,1.4,1.4,2.8c1.3,2.4,2.1,5.2,6.8,11.5
				c10.2,13.8,11.7,18.3,11.9,20.3c0.2,1.9,0.8,12.8,1.3,23.4c0,0.1,0.1,1.1,0.1,2.6c-5.3-0.6-10.5-1.5-15.6-2.7
				c-1.6-0.4-3.3-0.9-4.9-1.4c0-0.9,0.1-1.6,0.1-2.2C756.5,237.3,755.4,234.7,753.1,232.4L753.1,232.4z"/>
		</g>
	</g>
</g>
<g>
	<linearGradient id="SVGID_1_" gradientUnits="userSpaceOnUse" x1="324.1762" y1="30.6714" x2="325.0881" y2="221.8085">
		<stop  offset="0" style="stop-color:#F4EBBB"/>
		<stop  offset="0.1113" style="stop-color:#F0E6B3"/>
		<stop  offset="0.285" style="stop-color:#E5D79D"/>
		<stop  offset="0.4994" style="stop-color:#D3BF79"/>
		<stop  offset="0.7437" style="stop-color:#BA9D47"/>
		<stop  offset="0.9594" style="stop-color:#A17C15"/>
	</linearGradient>
	<path class="st3" d="M251.8,207.4l71.7-65.2c16.1-14.7,23.2-26,23.2-37.6c0-12.1-10.2-20.9-24.8-20.9c-15,0-27.7,7.9-40.4,25.1
		l-30.2-28.8c20-27.4,43.5-39,72.9-39c41.8,0,69.5,23.7,69.5,60.4c0,26.8-12.1,47.7-41.8,72.6l-32.5,27.4l32.5-0.8h46.6v41.5H251.8
		V207.4z"/>
	
		<linearGradient id="SVGID_00000094590151229022662700000002354423557261953452_" gradientUnits="userSpaceOnUse" x1="490.0388" y1="27.5281" x2="490.845" y2="220.0446">
		<stop  offset="0" style="stop-color:#F4EBBB"/>
		<stop  offset="0.1161" style="stop-color:#F0E5B2"/>
		<stop  offset="0.3021" style="stop-color:#E4D69B"/>
		<stop  offset="0.5348" style="stop-color:#D1BC75"/>
		<stop  offset="0.8024" style="stop-color:#B79940"/>
		<stop  offset="1" style="stop-color:#A17C15"/>
	</linearGradient>
	<path style="fill:url(#SVGID_00000094590151229022662700000002354423557261953452_);" d="M404,143.3c0-63.5,32.8-102.2,86.7-102.2
		c53.7,0,86.4,38.7,86.4,102.2c0,63.3-32.8,102.2-86.4,102.2C436.7,245.5,404,206.8,404,143.3z M490.7,203.5
		c24,0,38.7-22.9,38.7-60.1c0-37.3-14.7-60.1-38.7-60.1c-24,0-38.7,23.2-38.7,60.1C452,180.3,466.7,203.5,490.7,203.5z"/>
</g>
<g>
	<path class="st11" d="M115.6,116.6c-4,0-7.2-1.2-9.5-3.5c-2.3-2.3-3.5-6.1-3.5-11.2c0-5.2,1.2-9,3.5-11.3c2.3-2.3,5.5-3.5,9.5-3.5
		c4,0,7.2,1.2,9.5,3.5c2.3,2.3,3.5,6.1,3.5,11.3c0,2.6-0.3,4.8-0.9,6.7c-0.6,1.9-1.5,3.4-2.6,4.6c-1.1,1.2-2.5,2.1-4.1,2.6
		C119.4,116.3,117.6,116.6,115.6,116.6z M115.6,92.4c-2.5,0-4.4,0.8-5.5,2.5c-1.2,1.7-1.7,4-1.7,7c0,3.3,0.6,5.6,1.7,7.1
		c1.2,1.5,3,2.2,5.5,2.2c2.5,0,4.4-0.7,5.5-2.2c1.2-1.5,1.7-3.9,1.7-7.1c0-3-0.6-5.3-1.7-7C120,93.2,118.2,92.4,115.6,92.4z
		 M109.2,81.5c-0.5,0-0.7-0.2-0.7-0.7v-5c0-0.5,0.2-0.7,0.7-0.7h4.6c0.5,0,0.7,0.2,0.7,0.7v5c0,0.5-0.2,0.7-0.7,0.7H109.2z
		 M117.5,81.5c-0.5,0-0.7-0.2-0.7-0.7v-5c0-0.5,0.2-0.7,0.7-0.7h4.6c0.5,0,0.7,0.2,0.7,0.7v5c0,0.5-0.2,0.7-0.7,0.7H117.5z"/>
	<path class="st11" d="M133,129.6c-0.5,0-0.7-0.2-0.7-0.7V125c0-0.5,0.2-0.7,0.7-0.7h1.6c3.7,0,5.5-1.9,5.5-5.8V89
		c0-0.5,0.2-0.7,0.7-0.7h4.4c0.5,0,0.7,0.2,0.7,0.7v17.2c0,1.5,0.6,2.7,1.7,3.5c1.1,0.8,2.6,1.2,4.5,1.2h0.7c0.9,0,1.6,0.2,2,0.6
		c0.5,0.4,0.7,1,0.7,1.9c0,1.2-0.2,1.9-0.6,2.3c-0.4,0.3-1.1,0.5-2.1,0.5h-1.4c-2.4,0-4.2-0.7-5.4-2.2v4.5c0,3.7-0.9,6.5-2.8,8.4
		c-1.9,1.9-4.6,2.9-8.2,2.9H133z M140.7,81.5c-0.5,0-0.7-0.2-0.7-0.7v-5c0-0.5,0.2-0.7,0.7-0.7h4.6c0.5,0,0.7,0.2,0.7,0.7v5
		c0,0.5-0.2,0.7-0.7,0.7H140.7z"/>
	<path class="st11" d="M153.2,116.1c-0.9,0-1.6-0.2-2-0.5c-0.5-0.3-0.7-1-0.7-1.9c0-1.1,0.2-1.9,0.6-2.3c0.4-0.4,1.1-0.6,2.1-0.6
		h4.3c1.1,0,2-0.3,2.5-0.8c0.5-0.5,0.8-1.5,0.8-2.8V89c0-0.5,0.2-0.7,0.7-0.7h4.4c0.5,0,0.7,0.2,0.7,0.7v18.6c0,2.9-0.6,5.1-1.8,6.5
		c-1.2,1.4-3.3,2.1-6.1,2.1H153.2z M158.4,79c-0.4-0.5-0.7-1-0.9-1.6c-0.2-0.6-0.3-1.4-0.3-2.2c0-0.7,0.1-1.4,0.3-2.1
		c0.2-0.7,0.6-1.4,1.2-2.1c0.6-0.6,1.3-1.2,2.3-1.6c0.9-0.4,2.1-0.6,3.6-0.6c1.3,0,2.4,0.2,3.5,0.7c1.1,0.5,1.9,1.1,2.4,1.9
		c0.2,0.3,0.2,0.5-0.1,0.7l-1.8,1.5c-0.1,0.1-0.3,0-0.5-0.2c-0.5-0.4-1-0.8-1.6-1.1c-0.6-0.3-1.3-0.4-2.2-0.4
		c-1.3,0-2.3,0.4-2.9,1.1c-0.6,0.7-0.9,1.5-0.9,2.4c0,1,0.2,1.8,0.7,2.4c0.5,0.6,1,1,1.5,1.3h7.7c0.3,0,0.4,0.2,0.4,0.5v2.2
		c0,0.3-0.1,0.5-0.4,0.5h-14.5c-0.3,0-0.4-0.2-0.4-0.5v-2.2c0-0.3,0.1-0.5,0.4-0.5H158.4z"/>
	<path class="st11" d="M176.6,70.5c0-0.5,0.2-0.7,0.7-0.7h4.4c0.5,0,0.7,0.2,0.7,0.7v36.7c0,1.4,0.3,2.3,0.8,2.8
		c0.5,0.5,1.3,0.8,2.5,0.8h3c1.8,0,2.7,0.9,2.7,2.7c0,1.1-0.2,1.8-0.6,2.1c-0.4,0.3-1.1,0.4-2.1,0.4h-4c-2.9,0-4.9-0.7-6.1-2.1
		c-1.2-1.4-1.8-3.5-1.8-6.5V70.5z"/>
	<path class="st11" d="M204.4,92.4c-1.5,0-3,0.3-4.2,1c-1.3,0.6-2.4,1.5-3.4,2.6c-0.3,0.3-0.6,0.3-1,0.1l-3-2.4
		c-0.4-0.3-0.5-0.6-0.2-1c1.3-1.6,2.8-2.9,4.7-3.9c1.9-1,4.2-1.6,6.9-1.6c3.1,0,5.7,0.5,7.7,1.5c2,1,3.6,2.3,4.8,3.8
		c1.2,1.6,2,3.4,2.4,5.5c0.5,2.1,0.7,4.2,0.7,6.5c0,2.3-0.2,4.1-0.6,5.6c-0.4,1.5-1,2.7-1.8,3.6c-0.8,0.9-1.8,1.6-3.1,1.9
		c-1.3,0.4-2.7,0.6-4.4,0.6h-21.4c-1.8,0-2.7-0.9-2.7-2.7c0-1.1,0.2-1.8,0.6-2.1c0.4-0.3,1.1-0.4,2.1-0.4h19.3
		c1.3,0,2.3-0.1,3.1-0.3c0.8-0.2,1.4-0.6,1.8-1.1c0.4-0.5,0.7-1.2,0.8-2c0.1-0.8,0.2-1.9,0.2-3.1c0-1.8-0.2-3.4-0.5-4.9
		c-0.3-1.5-0.8-2.7-1.5-3.8c-0.7-1.1-1.6-1.9-2.8-2.4C207.7,92.6,206.2,92.4,204.4,92.4z M203.2,128.6c-0.5,0-0.7-0.2-0.7-0.7v-5
		c0-0.5,0.2-0.7,0.7-0.7h4.6c0.5,0,0.7,0.2,0.7,0.7v5c0,0.5-0.2,0.7-0.7,0.7H203.2z"/>
</g>
<g>
	<path class="st11" d="M15.2,188.1c0.2-0.3,0.5-0.3,0.9-0.1l3.6,2c0.4,0.2,0.4,0.5,0.2,0.9c-0.8,1.2-1.6,2.8-2.3,4.6
		c-0.7,1.8-1.1,3.7-1.1,5.7c0,1.9,0.3,3.5,1,4.7c0.6,1.3,1.5,2.2,2.5,3c1,0.7,2.1,1.2,3.3,1.6s2.4,0.5,3.5,0.5
		c2.8,0,5.1-0.7,6.9-2.2c1.8-1.5,2.7-3.8,2.7-7.1v-19.3c0-0.4,0.2-0.7,0.7-0.7h4.2c0.4,0,0.7,0.2,0.7,0.7v19.3c0,4.5-1.3,8.1-4,10.6
		c-2.7,2.6-6.5,3.8-11.5,3.8c-2.4,0-4.5-0.3-6.4-1s-3.5-1.6-4.9-2.8c-1.3-1.2-2.4-2.7-3.1-4.5c-0.7-1.8-1.1-3.8-1.1-6.2
		c0-2.6,0.4-5.1,1.3-7.5C13,191.7,14,189.7,15.2,188.1z M26.5,180c-0.4,0-0.7-0.2-0.7-0.7v-4.8c0-0.4,0.2-0.7,0.7-0.7H31
		c0.4,0,0.7,0.2,0.7,0.7v4.8c0,0.4-0.2,0.7-0.7,0.7H26.5z"/>
	<path class="st11" d="M68.1,197.8h7.7c1.1,0,1.9-0.3,2.4-0.8c0.5-0.5,0.8-1.4,0.8-2.7v-35.6c0-0.4,0.2-0.7,0.7-0.7h4.2
		c0.4,0,0.7,0.2,0.7,0.7v35.9c0,2.9-0.6,5-1.8,6.3c-1.2,1.3-3.2,2-5.9,2H49.6c-0.4,0-0.7-0.2-0.7-0.7v-3.8c0-0.4,0.2-0.7,0.7-0.7h13
		V168c0-0.4,0.2-0.7,0.7-0.7h4.2c0.4,0,0.7,0.2,0.7,0.7V197.8z M54.3,161.6c0.3-1.4,0.9-2.5,1.8-3.2c0.9-0.7,1.9-1.1,3.1-1.1
		c1,0,2,0.2,3,0.5c1.1,0.4,2.1,0.7,3.2,1.2c1.1,0.4,2.1,0.8,3.2,1.2c1.1,0.4,2.1,0.5,3,0.5c0.7,0,1.3-0.2,1.6-0.5
		c0.3-0.3,0.4-0.9,0.4-1.7c0-0.4,0.2-0.7,0.7-0.7h1.5c0.4,0,0.7,0.2,0.7,0.7c0,1.8-0.4,3.2-1.2,4.1c-0.8,0.9-1.9,1.4-3.3,1.4
		c-1.1,0-2.3-0.2-3.5-0.5c-1.2-0.4-2.3-0.7-3.4-1.2c-1.1-0.4-2.1-0.8-3.1-1.2c-1-0.4-1.9-0.5-2.7-0.5c-0.4,0-0.9,0.1-1.3,0.4
		c-0.4,0.2-0.7,0.7-0.9,1.5c-0.1,0.4-0.4,0.6-0.9,0.5l-1.4-0.4C54.3,162.3,54.2,162,54.3,161.6z"/>
	<path class="st11" d="M99.3,202.3c0,0.4-0.2,0.7-0.7,0.7h-4.2c-0.4,0-0.7-0.2-0.7-0.7v-43.6c0-0.4,0.2-0.7,0.7-0.7h4.2
		c0.4,0,0.7,0.2,0.7,0.7V202.3z"/>
	<path class="st11" d="M148.4,193.1c1.4,0.5,2.8,1.1,4.1,1.6c1.3,0.6,2.6,1.1,3.9,1.5c1.3,0.5,2.5,0.8,3.7,1.1
		c1.2,0.3,2.5,0.4,3.8,0.4h5.3c0.9,0,1.5,0.2,2,0.5c0.4,0.3,0.7,0.9,0.7,1.8c0,1.1-0.2,1.8-0.6,2.2c-0.4,0.4-1.1,0.6-2,0.6h-4.7
		c0.2,0.4,0.5,0.9,0.8,1.7c0.3,0.8,0.5,1.7,0.5,2.7c0,1.1-0.2,2.1-0.6,3.1c-0.4,1-1.1,2-2.1,2.8c-1,0.8-2.2,1.5-3.8,2
		c-1.6,0.5-3.5,0.8-5.8,0.8h-15.4c-5.1,0-9.1-1.3-11.7-3.9c-2.7-2.6-4-6.1-4-10.6c0-2.6,0.4-5.1,1.3-7.5s1.9-4.4,3-6
		c0.2-0.3,0.5-0.3,0.9-0.1l3.6,2c0.4,0.2,0.4,0.5,0.2,0.9c-0.8,1.2-1.6,2.8-2.3,4.6c-0.7,1.8-1.1,3.7-1.1,5.7c0,1.8,0.3,3.3,0.9,4.6
		c0.6,1.3,1.4,2.3,2.4,3c1,0.7,2.2,1.3,3.5,1.6c1.3,0.3,2.7,0.5,4.1,0.5h14.6c2.6,0,4.5-0.4,5.5-1.2c1-0.8,1.6-1.7,1.6-2.8
		c0-1-0.3-1.8-0.9-2.5c-0.6-0.7-1.5-1.4-2.6-1.9c-1.2-0.6-2.6-1.2-4.4-1.8c-1.7-0.6-3.7-1.3-6-2.2c-0.4-0.1-0.5-0.4-0.4-0.8l1.5-4
		C147.7,193.1,148,193,148.4,193.1z"/>
	<path class="st11" d="M169.6,202.9c-0.9,0-1.5-0.2-2-0.5c-0.4-0.3-0.7-0.9-0.7-1.8c0-1.1,0.2-1.8,0.6-2.2c0.4-0.4,1.1-0.6,2-0.6
		h4.5c1.1,0,1.9-0.3,2.4-0.8c0.5-0.5,0.8-1.4,0.8-2.7v-17.7c0-0.4,0.2-0.7,0.7-0.7h4.2c0.4,0,0.7,0.2,0.7,0.7v16.7
		c0,1.5,0.5,2.6,1.6,3.4c1.1,0.7,2.5,1.1,4.3,1.1h0.8c0.9,0,1.5,0.2,2,0.6c0.4,0.4,0.7,1,0.7,1.9c0,1.1-0.2,1.9-0.6,2.2
		c-0.4,0.3-1.1,0.5-2,0.5h-1.5c-1.4,0-2.6-0.3-3.7-0.9c-1.1-0.6-1.9-1.4-2.4-2.6c-1.1,2.3-3.4,3.4-6.9,3.4H169.6z M173.6,169.4
		c-0.4,0-0.7-0.2-0.7-0.7v-4.8c0-0.4,0.2-0.7,0.7-0.7h4.5c0.4,0,0.7,0.2,0.7,0.7v4.8c0,0.4-0.2,0.7-0.7,0.7H173.6z M181.7,169.4
		c-0.4,0-0.7-0.2-0.7-0.7v-4.8c0-0.4,0.2-0.7,0.7-0.7h4.5c0.4,0,0.7,0.2,0.7,0.7v4.8c0,0.4-0.2,0.7-0.7,0.7H181.7z"/>
	<path class="st11" d="M205,179.9c-1.5,0-2.9,0.3-4.1,0.9c-1.3,0.6-2.4,1.5-3.3,2.5c-0.3,0.3-0.6,0.3-0.9,0.1l-2.9-2.4
		c-0.4-0.3-0.5-0.6-0.2-0.9c1.2-1.5,2.8-2.8,4.6-3.8c1.8-1,4.1-1.5,6.7-1.5c3,0,5.5,0.5,7.5,1.4c1.9,0.9,3.5,2.2,4.6,3.7
		c1.1,1.5,1.9,3.3,2.4,5.3c0.4,2,0.7,4.1,0.7,6.3c0,2.2-0.2,4-0.6,5.5c-0.4,1.5-1,2.6-1.7,3.5c-0.8,0.9-1.8,1.5-3,1.9
		c-1.2,0.4-2.6,0.6-4.3,0.6h-20.8c-1.8,0-2.6-0.9-2.6-2.6c0-1.1,0.2-1.8,0.6-2.1c0.4-0.3,1.1-0.4,2-0.4h18.7c1.2,0,2.2-0.1,3-0.3
		c0.7-0.2,1.3-0.5,1.7-1c0.4-0.5,0.7-1.1,0.8-1.9c0.1-0.8,0.2-1.8,0.2-3c0-1.7-0.2-3.3-0.5-4.7c-0.3-1.4-0.8-2.7-1.5-3.7
		c-0.7-1-1.6-1.8-2.7-2.4C208.1,180.2,206.7,179.9,205,179.9z"/>
</g>
</svg>
