<svg width="72" height="72" viewBox="0 0 72 72" fill="none" xmlns="http://www.w3.org/2000/svg">
<path d="M6.07455 27.678V8.27137C6.07455 7.56951 6.35471 6.89639 6.85338 6.4001C7.35206 5.90381 8.02841 5.625 8.73364 5.625H61.9155C62.6207 5.625 63.297 5.90381 63.7957 6.4001C64.2944 6.89639 64.5745 7.56951 64.5745 8.27137V27.678C64.5745 55.47 40.8734 64.6776 36.141 66.2391C35.6119 66.4203 35.0372 66.4203 34.5081 66.2391C29.7757 64.6776 6.07455 55.47 6.07455 27.678Z" fill="white"/>
<path fill-rule="evenodd" clip-rule="evenodd" d="M8.73365 6.5251C8.26572 6.5251 7.81782 6.71013 7.48826 7.03812C7.15884 7.36596 6.97456 7.8097 6.97456 8.27146V27.6781C6.97456 54.8251 30.103 63.838 34.7902 65.3845L34.7998 65.3877C35.1398 65.5042 35.5093 65.5042 35.8493 65.3877L35.8589 65.3845L35.859 65.3845C40.5461 63.838 63.6746 54.8251 63.6746 27.6781V8.27146C63.6746 7.80969 63.4903 7.36596 63.1609 7.03812C62.8313 6.71013 62.3834 6.5251 61.9155 6.5251H8.73365ZM6.21852 5.76228C6.88631 5.09769 7.79111 4.7251 8.73365 4.7251H61.9155C62.858 4.7251 63.7628 5.09769 64.4306 5.76228C65.0985 6.42702 65.4746 7.32951 65.4746 8.27146V27.6781C65.4746 56.1058 41.2164 65.5114 36.4276 67.0923C35.7126 67.336 34.9365 67.336 34.2215 67.0923C29.4327 65.5114 5.17456 56.1058 5.17456 27.6781V8.27146C5.17456 7.32951 5.55059 6.42702 6.21852 5.76228Z" fill="#0C9AB0"/>
<path d="M10.5746 28.0942V12.2813C10.5746 11.7094 10.8116 11.1609 11.2336 10.7566C11.6555 10.3522 12.2278 10.125 12.8246 10.125H57.8246C58.4213 10.125 58.9936 10.3522 59.4155 10.7566C59.8375 11.1609 60.0746 11.7094 60.0746 12.2813V28.0942C60.0746 50.7394 40.0197 60.4919 36.0154 61.7643C35.5677 61.9119 35.0814 61.9119 34.6337 61.7643C30.6294 60.4919 10.5746 50.7394 10.5746 28.0942Z" fill="#E9F6F8"/>
<path fill-rule="evenodd" clip-rule="evenodd" d="M12.8246 11.0251C12.4545 11.0251 12.1068 11.1664 11.8563 11.4064C11.6071 11.6453 11.4746 11.9609 11.4746 12.2814V28.0942C11.4746 36.9999 14.652 43.8457 18.7035 48.9399C19.0129 49.3289 18.9483 49.8951 18.5593 50.2045C18.1703 50.5139 17.6041 50.4493 17.2947 50.0603C13.0284 44.6961 9.67456 37.4647 9.67456 28.0942V12.2814C9.67456 11.4582 10.0162 10.6768 10.6108 10.1069C11.2042 9.5382 12.0012 9.2251 12.8246 9.2251H57.8246C58.6479 9.2251 59.4449 9.5382 60.0383 10.1069C60.633 10.6768 60.9746 11.4582 60.9746 12.2814V28.0942C60.9746 30.6031 60.734 32.9613 60.2986 35.1734C60.2026 35.6611 59.7294 35.9787 59.2417 35.8827C58.754 35.7867 58.4365 35.3135 58.5325 34.8258C58.9452 32.729 59.1746 30.4873 59.1746 28.0942V12.2814C59.1746 11.9609 59.042 11.6453 58.7928 11.4064C58.5423 11.1664 58.1947 11.0251 57.8246 11.0251H12.8246Z" fill="#91D2DC"/>
<path d="M52.1993 56.25L53.2139 44.4375L49.5576 43.3125L40.9493 41.625V37.125C40.9493 37.125 38.6993 38.25 36.4493 38.25C34.1993 38.25 32.3517 37.1796 31.9493 37.125V42.75L27.3087 43.3125L25.4806 43.875L21.8243 45V57.375L30.8243 63L35.3243 65.25L52.1993 56.25Z" fill="white"/>
<path d="M36.4493 38.25C40.7986 38.25 44.3243 34.7242 44.3243 30.375C45.4493 30.375 46.5743 29.25 46.5743 27.45C46.5743 25.875 45.4493 24.75 44.3243 24.75V20.25C43.1993 18.75 40.0493 15.75 36.4493 15.75C32.8493 15.75 29.6993 18.75 28.5743 20.25V24.75C27.8243 24.75 26.3243 25.65 26.3243 27.45C26.3243 29.25 27.4493 30.375 28.5743 30.375C28.5743 34.7242 32.1001 38.25 36.4493 38.25Z" fill="white"/>
<path fill-rule="evenodd" clip-rule="evenodd" d="M31.0777 16.6935C32.54 15.6987 34.4037 14.8501 36.4496 14.8501C38.4955 14.8501 40.3591 15.6987 41.8214 16.6935C43.287 17.6905 44.4266 18.8862 45.0446 19.7101C45.1614 19.8659 45.2246 20.0554 45.2246 20.2501V24.0031C46.5183 24.4531 47.4746 25.8423 47.4746 27.4501C47.4746 29.2215 46.525 30.685 45.1922 31.1334C44.8078 35.6247 41.0404 39.1501 36.4496 39.1501C31.8587 39.1501 28.0913 35.6247 27.7069 31.1334C26.3742 30.685 25.4246 29.2215 25.4246 27.4501C25.4246 26.2782 25.9198 25.376 26.545 24.7758C26.8802 24.4541 27.2747 24.1994 27.6746 24.0393V20.2501C27.6746 20.0554 27.7377 19.8659 27.8546 19.7101C28.4725 18.8862 29.6121 17.6905 31.0777 16.6935ZM29.4746 20.56V24.7501C29.4746 25.2472 29.0716 25.6501 28.5746 25.6501C28.4883 25.6501 28.1384 25.7414 27.7916 26.0743C27.4793 26.3742 27.2246 26.822 27.2246 27.4501C27.2246 28.9137 28.0933 29.4751 28.5746 29.4751C29.0716 29.4751 29.4746 29.878 29.4746 30.3751C29.4746 34.2273 32.5974 37.3501 36.4496 37.3501C40.3017 37.3501 43.4246 34.2273 43.4246 30.3751C43.4246 29.878 43.8275 29.4751 44.3246 29.4751C44.8058 29.4751 45.6746 28.9137 45.6746 27.4501C45.6746 26.263 44.8499 25.6501 44.3246 25.6501C43.8275 25.6501 43.4246 25.2472 43.4246 24.7501V20.56C42.8799 19.8897 41.9611 18.9655 40.809 18.1817C39.515 17.3015 38.0037 16.6501 36.4496 16.6501C34.8955 16.6501 33.3841 17.3015 32.0902 18.1817C30.938 18.9655 30.0192 19.8897 29.4746 20.56Z" fill="#0C9AB0"/>
<path d="M65.6993 50.625C65.6993 58.0808 59.6552 64.125 52.1993 64.125C44.7435 64.125 38.6993 58.0808 38.6993 50.625C38.6993 43.1692 44.7435 37.125 52.1993 37.125C59.6552 37.125 65.6993 43.1692 65.6993 50.625Z" fill="white"/>
<path fill-rule="evenodd" clip-rule="evenodd" d="M59.586 45.4887C59.9374 45.8402 59.9374 46.41 59.586 46.7615L50.586 55.7615C50.2345 56.113 49.6646 56.113 49.3132 55.7615L44.8132 51.2615C44.4617 50.91 44.4617 50.3402 44.8132 49.9887C45.1646 49.6372 45.7345 49.6372 46.086 49.9887L49.9496 53.8523L58.3132 45.4887C58.6646 45.1372 59.2345 45.1372 59.586 45.4887Z" fill="#EF4550"/>
<path d="M36.4493 13.5C27.4493 13.5 26.3243 20.2831 26.3243 25.875C30.8243 19.125 37.5743 23.625 39.8243 19.125C42.0743 23.625 43.1993 22.5 46.5743 25.875C46.5743 20.2831 45.4493 13.5 36.4493 13.5Z" fill="#91D2DC"/>
<path fill-rule="evenodd" clip-rule="evenodd" d="M52.1996 38.0251C45.2408 38.0251 39.5996 43.6663 39.5996 50.6251C39.5996 57.5839 45.2408 63.2251 52.1996 63.2251C52.6966 63.2251 53.0996 63.628 53.0996 64.1251C53.0996 64.6221 52.6966 65.0251 52.1996 65.0251C44.2467 65.0251 37.7996 58.578 37.7996 50.6251C37.7996 42.6722 44.2467 36.2251 52.1996 36.2251C60.1525 36.2251 66.5996 42.6722 66.5996 50.6251C66.5996 56.8964 62.5912 62.2291 56.9995 64.2055C56.5308 64.3711 56.0166 64.1255 55.851 63.6568C55.6854 63.1882 55.931 62.674 56.3996 62.5084C61.2947 60.7782 64.7996 56.1098 64.7996 50.6251C64.7996 43.6663 59.1583 38.0251 52.1996 38.0251Z" fill="#0C9AB0"/>
<path fill-rule="evenodd" clip-rule="evenodd" d="M31.0496 42.7501V37.1251H32.8496V42.7501H31.0496Z" fill="#0C9AB0"/>
<path fill-rule="evenodd" clip-rule="evenodd" d="M40.0496 37.1251H41.8496V42.7482L40.0496 42.7501V37.1251Z" fill="#0C9AB0"/>
<path fill-rule="evenodd" clip-rule="evenodd" d="M32.8219 41.9142C32.9441 42.396 32.6526 42.8856 32.1708 43.0078L27.5521 44.1794L25.2659 44.8829C23.7553 45.3477 22.7246 46.7433 22.7246 48.3237V54.0001C22.7246 54.4971 22.3216 54.9001 21.8246 54.9001C21.3275 54.9001 20.9246 54.4971 20.9246 54.0001V48.3237C20.9246 45.9531 22.4707 43.8597 24.7365 43.1625L27.0658 42.4458L31.7283 41.2631C32.2101 41.1409 32.6997 41.4324 32.8219 41.9142Z" fill="#0C9AB0"/>
<path fill-rule="evenodd" clip-rule="evenodd" d="M36.4495 43.1778C38.3259 43.1778 40.0277 42.438 41.2822 41.2323L42.5295 42.53C40.9532 44.045 38.8093 44.9778 36.4495 44.9778C34.2401 44.9778 32.2195 44.1601 30.6772 42.8121L31.8618 41.4568C33.0886 42.5291 34.6922 43.1778 36.4495 43.1778Z" fill="#0C9AB0"/>
<path d="M34.1996 28.1251C34.1996 28.7464 33.6959 29.2501 33.0746 29.2501C32.4532 29.2501 31.9496 28.7464 31.9496 28.1251C31.9496 27.5038 32.4532 27.0001 33.0746 27.0001C33.6959 27.0001 34.1996 27.5038 34.1996 28.1251Z" fill="#0C9AB0"/>
<path d="M40.9496 28.1251C40.9496 28.7464 40.4459 29.2501 39.8246 29.2501C39.2032 29.2501 38.6996 28.7464 38.6996 28.1251C38.6996 27.5038 39.2032 27.0001 39.8246 27.0001C40.4459 27.0001 40.9496 27.5038 40.9496 28.1251Z" fill="#0C9AB0"/>
<path fill-rule="evenodd" clip-rule="evenodd" d="M27.3257 23.3185C28.0661 22.6474 28.844 22.1536 29.6402 21.7878C31.0771 21.1276 32.5317 20.9049 33.8189 20.7619C34.089 20.7318 34.3477 20.7054 34.5961 20.6801C35.5813 20.5794 36.4038 20.4955 37.132 20.2694C37.9675 20.0101 38.5882 19.5854 39.0195 18.7226C39.172 18.4177 39.4836 18.2251 39.8245 18.2251C40.1654 18.2251 40.477 18.4177 40.6295 18.7226C41.7012 20.8659 42.4564 21.5865 43.3008 22.1896C43.5047 22.3353 43.7263 22.481 43.9673 22.6395C44.4367 22.9482 44.9799 23.3055 45.6109 23.8058C45.4714 21.717 45.0709 19.681 44.111 18.0464C42.8898 15.9667 40.6795 14.4001 36.4496 14.4001C32.2196 14.4001 30.0094 15.9667 28.7881 18.0464C27.9031 19.5536 27.4936 21.4021 27.3257 23.3185ZM27.236 17.1349C28.8273 14.425 31.6795 12.6001 36.4496 12.6001C41.2196 12.6001 44.0719 14.425 45.6631 17.1349C47.1995 19.7512 47.4746 23.0561 47.4746 25.8751C47.4746 26.2391 47.2553 26.5673 46.919 26.7066C46.5827 26.8459 46.1956 26.7689 45.9382 26.5115C44.7196 25.2929 43.8508 24.7206 43.0409 24.1869C42.7759 24.0124 42.5172 23.8419 42.2546 23.6543C41.3597 23.0152 40.5865 22.2722 39.7142 20.8076C39.1244 21.39 38.422 21.7538 37.6655 21.9886C36.7476 22.2734 35.6945 22.3796 34.6928 22.4805C34.4643 22.5035 34.2386 22.5263 34.0177 22.5508C32.7736 22.6891 31.5564 22.8883 30.3917 23.4234C29.2452 23.9502 28.1077 24.823 27.0734 26.3743C26.8534 26.7043 26.4433 26.8514 26.0638 26.7365C25.6842 26.6216 25.4246 26.2717 25.4246 25.8751C25.4246 23.0561 25.6996 19.7512 27.236 17.1349Z" fill="#0C9AB0"/>
</svg>
