<svg width="33" height="32" viewBox="0 0 33 32" fill="none" xmlns="http://www.w3.org/2000/svg">
<circle cx="16.5" cy="16" r="16" fill="#E9F6F8"/>
<path d="M15.622 26.4908L3.31701 14.6701C2.9678 14.3346 2.90913 13.7971 3.17774 13.3942L8.24191 5.79795C8.51386 5.39002 9.04144 5.23941 9.48776 5.44228L11.3173 6.27389C11.4147 6.31815 11.5155 6.35454 11.6187 6.38268L13.6917 6.94805C14.0335 7.04127 14.3444 7.22362 14.5926 7.47645L26.5681 19.6747C27.1829 20.301 27.2233 21.2913 26.6614 21.9655C26.0182 22.7374 24.8511 22.7903 24.1406 22.0799L23.5646 21.5039C24.2139 22.1531 24.2308 23.2005 23.6029 23.8705C22.9456 24.5719 21.8381 24.5899 21.1583 23.9101L20.4324 23.1841C21.0364 23.7882 21.0364 24.7676 20.4324 25.3716C19.8283 25.9757 18.8489 25.9757 18.2449 25.3716L17.4743 24.601C18.0115 25.1383 17.987 26.0166 17.4206 26.523C16.9048 26.9841 16.1209 26.9701 15.622 26.4908Z" fill="white"/>
<path d="M12.619 8.46842L16.1617 6.01582C16.9803 5.44907 18.0912 5.57081 18.7676 6.30139L27.4209 15.6469C28.0469 16.323 28.0542 17.3647 27.4379 18.0496C26.7483 18.8158 25.5543 18.8388 24.8357 18.0997L17.9366 11.0032C17.0237 10.0641 15.4422 10.4091 15.0034 11.6431L14.6988 12.4996C14.3158 13.5764 13.4363 14.4018 12.3375 14.7158C11.7213 14.8918 11.1283 14.3747 11.2189 13.7403L11.7776 9.82997C11.8563 9.27877 12.1613 8.78535 12.619 8.46842Z" fill="#E9F6F8"/>
<path d="M6.09594 15.0526C6.65196 14.4596 7.58345 14.4296 8.17648 14.9856C8.76952 15.5416 8.79952 16.4731 8.2435 17.0661L7.36407 18.0041C6.80805 18.5971 5.87656 18.6271 5.28353 18.0711C4.6905 17.5151 4.66049 16.5836 5.21651 15.9906L6.09594 15.0526Z" fill="#E9F6F8"/>
<path d="M8.79885 16.4733C9.3785 15.8551 10.3496 15.8238 10.9678 16.4035C11.586 16.9831 11.6173 17.9542 11.0377 18.5724L9.38258 20.3377C8.80293 20.9559 7.83185 20.9872 7.21361 20.4076C6.59538 19.8279 6.5641 18.8569 7.14375 18.2386L8.79885 16.4733Z" fill="#E9F6F8"/>
<path d="M10.5913 19.0488C11.0871 18.52 11.9177 18.4932 12.4465 18.989C12.9753 19.4848 13.0021 20.3154 12.5063 20.8442L11.3093 22.1208C10.8135 22.6496 9.98291 22.6764 9.45411 22.1806C8.92531 21.6848 8.89855 20.8542 9.39435 20.3254L10.5913 19.0488Z" fill="#E9F6F8"/>
<path d="M11.9712 21.5424C12.467 21.0136 13.2976 20.9869 13.8264 21.4827C14.3552 21.9785 14.382 22.8091 13.8862 23.3379L13.2877 23.9762C12.7919 24.505 11.9613 24.5317 11.4325 24.0359C10.9037 23.5401 10.8769 22.7096 11.3727 22.1808L11.9712 21.5424Z" fill="#E9F6F8"/>
<path fill-rule="evenodd" clip-rule="evenodd" d="M7.9087 5.57594C8.28943 5.00484 9.02805 4.79398 9.6529 5.078L11.4824 5.90961C11.5603 5.94502 11.641 5.97413 11.7235 5.99665L12.9435 6.32936C13.1566 6.38748 13.2823 6.60738 13.2241 6.82051C13.166 7.03364 12.9461 7.15929 12.733 7.10117L11.513 6.76846C11.3892 6.73468 11.2683 6.69102 11.1514 6.6379L9.32186 5.8063C9.05406 5.68457 8.73751 5.77494 8.57434 6.0197L3.51018 13.6159C3.34901 13.8577 3.38421 14.1802 3.59374 14.3815L5.2459 15.9686C5.40521 16.1216 5.4103 16.3749 5.25725 16.5342C5.10421 16.6935 4.85099 16.6986 4.69168 16.5455L3.03952 14.9584C2.55063 14.4887 2.46848 13.7363 2.84453 13.1722L7.9087 5.57594ZM24.0786 17.1391C24.2362 16.9844 24.4895 16.9867 24.6442 17.1444L26.8531 19.3943C27.6119 20.1673 27.6617 21.3894 26.9683 22.2215C26.3382 22.9776 25.3007 23.1747 24.4611 22.7853C24.443 23.2747 24.2546 23.7595 23.8944 24.1439C23.2007 24.8841 22.101 25.008 21.2718 24.5046C21.2228 24.9248 21.0371 25.332 20.7148 25.6544C20.0379 26.3312 18.9866 26.4055 18.2276 25.8771C18.157 26.2289 17.9762 26.5623 17.6868 26.821C17.0152 27.4216 15.9943 27.4033 15.3445 26.7792L13.9837 25.4718C13.8244 25.3188 13.8193 25.0656 13.9723 24.9063C14.1254 24.747 14.3786 24.7419 14.5379 24.8949L15.8987 26.2022C16.2468 26.5366 16.7938 26.5464 17.1536 26.2247C17.5487 25.8714 17.5659 25.2586 17.191 24.8838L14.6804 22.3731C14.5242 22.2169 14.5242 21.9636 14.6804 21.8074C14.8366 21.6512 15.0899 21.6512 15.2461 21.8074L18.5273 25.0887C18.9752 25.5365 19.7013 25.5365 20.1491 25.0887C20.597 24.6408 20.597 23.9147 20.1491 23.4669L16.8679 20.1856C16.7117 20.0294 16.7117 19.7761 16.8679 19.6199C17.0241 19.4637 17.2774 19.4637 17.4336 19.6199L21.4408 23.6271C21.9607 24.1471 22.8079 24.1333 23.3107 23.5968C23.7906 23.0848 23.778 22.2845 23.2826 21.7878L19.4929 17.9981C19.3367 17.8419 19.3367 17.5886 19.4929 17.4324C19.6491 17.2762 19.9024 17.2762 20.0586 17.4324L24.4231 21.7969C24.9672 22.341 25.8611 22.3005 26.3537 21.7093C26.7841 21.1929 26.7532 20.4345 26.2822 19.9548L24.0733 17.7048C23.9186 17.5472 23.9209 17.2939 24.0786 17.1391Z" fill="#0C9AB0"/>
<path fill-rule="evenodd" clip-rule="evenodd" d="M16.6844 5.16698C17.2042 4.80712 17.845 4.66689 18.4676 4.77676L24.6478 5.86738C24.8834 5.90897 25.1254 5.89716 25.3559 5.83284L26.5945 5.48719C27.365 5.27217 28.1587 5.74535 28.336 6.5254L30.364 15.449C30.5447 16.244 30.0105 17.0247 29.204 17.1441L29.174 17.1486C28.8662 17.1942 28.5784 17.3285 28.3458 17.5352L27.5251 18.2643C27.36 18.411 27.1072 18.3961 26.9604 18.2309C26.8137 18.0658 26.8287 17.813 26.9938 17.6662L27.8144 16.9371C28.1633 16.6272 28.5951 16.4256 29.0568 16.3572L29.0868 16.3528C29.4324 16.3016 29.6614 15.967 29.5839 15.6263L27.5558 6.7027C27.4799 6.36839 27.1397 6.1656 26.8095 6.25775L25.5709 6.6034C25.2252 6.69988 24.8622 6.71759 24.5087 6.65521L18.3286 5.56459C17.9135 5.49134 17.4863 5.58483 17.1398 5.82474L12.8464 8.79707C12.4802 9.05062 12.2362 9.44535 12.1732 9.88631L11.6205 13.7551C11.5681 14.1221 11.9112 14.4213 12.2676 14.3194C13.2289 14.0448 14.01 13.3427 14.3851 12.416L14.7341 11.5543C15.3421 10.0525 17.2898 9.66571 18.4255 10.8211L26.2785 18.8099C26.4333 18.9674 26.4312 19.2207 26.2736 19.3755C26.1161 19.5304 25.8628 19.5282 25.708 19.3707L17.855 11.3819C17.1229 10.6372 15.8675 10.8865 15.4756 11.8545L15.1267 12.7163C14.6591 13.8712 13.6855 14.7463 12.4874 15.0886C11.5737 15.3497 10.6942 14.5827 10.8286 13.6419L11.3812 9.77317C11.4757 9.11174 11.8417 8.51964 12.391 8.13932L16.6844 5.16698Z" fill="#0C9AB0"/>
<path fill-rule="evenodd" clip-rule="evenodd" d="M5.80381 14.7788C6.51092 14.0246 7.69555 13.9864 8.44974 14.6935C9.20393 15.4007 9.24209 16.5853 8.53497 17.3395L7.65554 18.2774C6.94842 19.0316 5.7638 19.0698 5.00961 18.3627C4.25542 17.6556 4.21726 16.4709 4.92437 15.7168L5.80381 14.7788ZM7.90256 15.2771C7.47068 14.8722 6.79233 14.8941 6.38741 15.326L5.50798 16.2639C5.10306 16.6958 5.12491 17.3742 5.55679 17.7791C5.98866 18.184 6.66702 18.1621 7.07194 17.7303L7.95137 16.7923C8.35629 16.3604 8.33443 15.6821 7.90256 15.2771Z" fill="#0C9AB0"/>
<path fill-rule="evenodd" clip-rule="evenodd" d="M8.50671 16.1995C9.23746 15.4201 10.4617 15.3807 11.2411 16.1114C12.0205 16.8422 12.0599 18.0664 11.3291 18.8458L9.67404 20.6111C8.9433 21.3905 7.71908 21.4299 6.93969 20.6992C6.1603 19.9684 6.12086 18.7442 6.85161 17.9648L8.50671 16.1995ZM10.6939 16.695C10.2368 16.2665 9.51886 16.2896 9.09032 16.7467L7.43521 18.512C7.00666 18.9691 7.02979 19.687 7.48687 20.1156C7.94395 20.5441 8.66189 20.521 9.09044 20.0639L10.7455 18.2986C11.1741 17.8415 11.151 17.1236 10.6939 16.695Z" fill="#0C9AB0"/>
<path fill-rule="evenodd" clip-rule="evenodd" d="M10.2992 18.775C10.9461 18.085 12.0298 18.0501 12.7198 18.697C13.4097 19.3439 13.4446 20.4276 12.7977 21.1176L11.6008 22.3942C10.9539 23.0842 9.87014 23.1191 9.18018 22.4722C8.49023 21.8253 8.45532 20.7416 9.10221 20.0516L10.2992 18.775ZM12.1726 19.2806C11.8049 18.9359 11.2275 18.9545 10.8828 19.3221L9.68582 20.5988C9.34112 20.9664 9.35972 21.5439 9.72736 21.8886C10.095 22.2333 10.6725 22.2147 11.0172 21.847L12.2141 20.5704C12.5588 20.2027 12.5402 19.6253 12.1726 19.2806Z" fill="#0C9AB0"/>
<path fill-rule="evenodd" clip-rule="evenodd" d="M11.6791 21.2686C12.326 20.5787 13.4097 20.5437 14.0997 21.1906C14.7896 21.8375 14.8245 22.9213 14.1776 23.6112L13.5792 24.2495C12.9323 24.9395 11.8485 24.9744 11.1586 24.3275C10.4686 23.6806 10.4337 22.5969 11.0806 21.9069L11.6791 21.2686ZM13.5525 21.7742C13.1848 21.4296 12.6074 21.4482 12.2627 21.8158L11.6642 22.4541C11.3195 22.8218 11.3381 23.3992 11.7058 23.7439C12.0734 24.0886 12.6509 24.07 12.9956 23.7024L13.594 23.064C13.9387 22.6964 13.9201 22.1189 13.5525 21.7742Z" fill="#0C9AB0"/>
<path fill-rule="evenodd" clip-rule="evenodd" d="M26.8025 7.79225C26.8563 8.00651 26.7263 8.22382 26.512 8.27764L25.5324 8.52367C25.3182 8.57749 25.1009 8.44742 25.047 8.23316C24.9932 8.0189 25.1233 7.80158 25.3376 7.74777L26.3171 7.50174C26.5314 7.44792 26.7487 7.57799 26.8025 7.79225ZM27.241 9.53802C27.2948 9.75228 27.1647 9.9696 26.9505 10.0234L25.9709 10.2694C25.7566 10.3233 25.5393 10.1932 25.4855 9.97894C25.4317 9.76468 25.5618 9.54736 25.776 9.49355L26.7556 9.24751C26.9699 9.1937 27.1872 9.32377 27.241 9.53802ZM27.6795 11.2838C27.7333 11.4981 27.6032 11.7154 27.389 11.7692L26.4094 12.0152C26.1951 12.069 25.9778 11.939 25.924 11.7247C25.8702 11.5105 26.0002 11.2931 26.2145 11.2393L27.1941 10.9933C27.4083 10.9395 27.6257 11.0695 27.6795 11.2838ZM28.1179 13.0296C28.1718 13.2438 28.0417 13.4612 27.8274 13.515L26.8479 13.761C26.6336 13.8148 26.4163 13.6848 26.3625 13.4705C26.3087 13.2562 26.4387 13.0389 26.653 12.9851L27.6326 12.7391C27.8468 12.6853 28.0641 12.8153 28.1179 13.0296ZM28.5077 14.5814C28.5615 14.7956 28.4315 15.013 28.2172 15.0668L27.2376 15.3128C27.0234 15.3666 26.806 15.2366 26.7522 15.0223C26.6984 14.808 26.8285 14.5907 27.0427 14.5369L28.0223 14.2909C28.2366 14.2371 28.4539 14.3671 28.5077 14.5814Z" fill="#EF4550"/>
</svg>
