<svg width="33" height="32" viewBox="0 0 33 32" fill="none" xmlns="http://www.w3.org/2000/svg">
<g clip-path="url(#clip0_339_8136)">
<rect width="32" height="32" transform="translate(0.5)" fill="white"/>
<path d="M16.5 32C25.3366 32 32.5 24.8366 32.5 16C32.5 7.16344 25.3366 0 16.5 0C7.66344 0 0.5 7.16344 0.5 16C0.5 24.8366 7.66344 32 16.5 32Z" fill="#E9F6F8"/>
<circle cx="8.5" cy="9" r="2" fill="white" stroke="#0C9AB0" stroke-width="0.8"/>
<circle cx="24.5" cy="9" r="2" fill="white" stroke="#0C9AB0" stroke-width="0.8"/>
<path d="M4.84354 12.897L3.69922 19H13.6992L12.3547 12.8534C12.1597 11.9624 11.1167 11.555 10.3578 12.061C9.28646 12.7752 7.87639 12.7848 6.80508 12.0706C6.04405 11.5632 5.0121 11.998 4.84354 12.897Z" fill="#BDE4EA"/>
<path d="M11.9499 11L10.3441 12.0706C9.27278 12.7848 7.87712 12.7848 6.80581 12.0706V12.0706C6.04478 11.5632 5.01283 11.998 4.84427 12.897L4.13867 16.6601" stroke="#0C9AB0" stroke-width="0.8" stroke-linecap="round"/>
<path d="M20.8435 12.897L19.6992 19H29.6992L28.3547 12.8534C28.1597 11.9624 27.1167 11.555 26.3578 12.061C25.2865 12.7752 23.8764 12.7848 22.8051 12.0706C22.0441 11.5632 21.0121 11.998 20.8435 12.897Z" fill="#BDE4EA"/>
<path d="M21.1992 11L22.7778 12.0524C23.8656 12.7776 25.2828 12.7776 26.3706 12.0524V12.0524C27.1295 11.5465 28.1597 11.9624 28.3547 12.8534L29.205 16.7408" stroke="#0C9AB0" stroke-width="0.8" stroke-linecap="round"/>
<circle cx="16.5" cy="6" r="2.5" fill="white" stroke="#0C9AB0" stroke-width="0.8"/>
<path d="M11.6103 10.5982L10.5 18H22.5L21.3897 10.5982C21.2084 9.38913 19.8312 8.77917 18.814 9.45735C17.4127 10.3915 15.5873 10.3915 14.186 9.45735C13.1688 8.77917 11.7916 9.38913 11.6103 10.5982Z" fill="#E9F6F8" stroke="#0C9AB0" stroke-width="0.8" stroke-linecap="round"/>
<path d="M7.58254 15.1157C7.9307 14.3129 9.0693 14.3129 9.41745 15.1157L10.4376 17.4682C10.5825 17.8024 10.8976 18.0313 11.2602 18.0659L13.8128 18.3091C14.6839 18.3921 15.0358 19.475 14.3798 20.0542L12.4577 21.7514C12.1846 21.9924 12.0643 22.3629 12.1435 22.7184L12.7009 25.2212C12.8912 26.0754 11.97 26.7446 11.2164 26.2997L9.00839 24.9961C8.69475 24.811 8.30525 24.811 7.99161 24.9961L5.78355 26.2997C5.02997 26.7446 4.10882 26.0754 4.29908 25.2212L4.85654 22.7184C4.93573 22.3629 4.81536 21.9924 4.54234 21.7514L2.62022 20.0542C1.96422 19.475 2.31607 18.3921 3.18724 18.3091L5.73983 18.0659C6.1024 18.0313 6.41752 17.8024 6.56242 17.4682L7.58254 15.1157Z" fill="white"/>
<path d="M10.6715 18.0099L9.77804 15.9494L9.41653 15.1157C9.06838 14.3129 7.92978 14.3129 7.58162 15.1157L6.5615 17.4682C6.4166 17.8024 6.10148 18.0313 5.7389 18.0659L3.18632 18.3091C2.31514 18.3921 1.9633 19.475 2.6193 20.0542L4.54142 21.7514C4.81444 21.9924 4.9348 22.3629 4.85562 22.7184L4.29816 25.2212C4.1079 26.0754 5.02904 26.7446 5.78263 26.2997L7.99069 24.9961C8.30432 24.811 8.69383 24.811 9.00747 24.9961L10.1638 25.6788" stroke="#EF4550" stroke-width="0.8" stroke-linecap="round"/>
<path d="M23.5825 15.1157C23.9307 14.3129 25.0693 14.3129 25.4175 15.1157L26.4376 17.4682C26.5825 17.8024 26.8976 18.0313 27.2602 18.0659L29.8128 18.3091C30.6839 18.3921 31.0358 19.475 30.3798 20.0542L28.4577 21.7514C28.1846 21.9924 28.0643 22.3629 28.1435 22.7184L28.7009 25.2212C28.8912 26.0754 27.97 26.7446 27.2164 26.2997L25.0084 24.9961C24.6948 24.811 24.3052 24.811 23.9916 24.9961L21.7836 26.2997C21.03 26.7446 20.1088 26.0754 20.2991 25.2212L20.8565 22.7184C20.9357 22.3629 20.8154 21.9924 20.5423 21.7514L18.6202 20.0542C17.9642 19.475 18.3161 18.3921 19.1872 18.3091L21.7398 18.0659C22.1024 18.0313 22.4175 17.8024 22.5624 17.4682L23.5825 15.1157Z" fill="white"/>
<path d="M22.3281 18.0099L23.5831 15.1157C23.9313 14.3129 25.0699 14.3129 25.418 15.1157L26.4382 17.4682C26.5831 17.8024 26.8982 18.0313 27.2608 18.0659L29.8133 18.3091C30.6845 18.3921 31.0364 19.475 30.3804 20.0542L28.4582 21.7514C28.1852 21.9924 28.0649 22.3629 28.144 22.7184L28.7015 25.2212C28.8918 26.0754 27.9706 26.7446 27.217 26.2997L25.009 24.9961C24.6953 24.811 24.3058 24.811 23.9922 24.9961L23.0006 25.5816" stroke="#EF4550" stroke-width="0.8" stroke-linecap="round"/>
<path d="M15.5825 13.1157C15.9307 12.3129 17.0693 12.3129 17.4175 13.1157L18.9807 16.7207C19.1256 17.0548 19.4407 17.2838 19.8033 17.3183L23.7149 17.6911C24.586 17.7741 24.9379 18.857 24.2819 19.4362L21.3364 22.0369C21.0634 22.278 20.9431 22.6484 21.0222 23.0039L21.8765 26.8392C22.0667 27.6934 21.1456 28.3627 20.392 27.9178L17.0084 25.9201C16.6948 25.735 16.3052 25.735 15.9916 25.9201L12.608 27.9178C11.8544 28.3627 10.9333 27.6934 11.1235 26.8392L11.9778 23.0039C12.0569 22.6484 11.9366 22.278 11.6636 22.0369L8.71811 19.4362C8.06211 18.857 8.41396 17.7741 9.28513 17.6911L13.1967 17.3183C13.5593 17.2838 13.8744 17.0548 14.0193 16.7207L15.5825 13.1157Z" fill="#BDE4EA" stroke="#0C9AB0" stroke-width="0.8"/>
</g>
<defs>
<clipPath id="clip0_339_8136">
<rect width="32" height="32" fill="white" transform="translate(0.5)"/>
</clipPath>
</defs>
</svg>
