<svg width="72" height="72" viewBox="0 0 72 72" fill="none" xmlns="http://www.w3.org/2000/svg">
<g clip-path="url(#clip0_360_20271)">
<circle cx="36" cy="36" r="36" fill="#E9F6F8"/>
<path d="M13.5 9.69751C13.5 8.45487 14.5074 7.44751 15.75 7.44751H56.25C57.4926 7.44751 58.5 8.45487 58.5 9.69751V45.6975V49.0725V52.4475V62.3069C58.5 63.9795 56.7398 65.0674 55.2438 64.3194L37.0062 55.2006C36.3728 54.8839 35.6272 54.8839 34.9938 55.2006L16.7562 64.3194C15.2602 65.0674 13.5 63.9795 13.5 62.3069V9.69751Z" fill="white"/>
<path d="M36.3495 23.5838C36.5168 23.0688 37.2454 23.0688 37.4128 23.5838L39.8933 31.2181C39.9682 31.4484 40.1828 31.6044 40.425 31.6044H48.4522C48.9937 31.6044 49.2189 32.2973 48.7808 32.6156L42.2866 37.3339C42.0907 37.4763 42.0087 37.7286 42.0836 37.9589L44.5641 45.5932C44.7314 46.1082 44.142 46.5365 43.7038 46.2182L37.2097 41.5C37.0138 41.3576 36.7485 41.3576 36.5525 41.5L30.0584 46.2182C29.6203 46.5365 29.0308 46.1082 29.1982 45.5932L31.6787 37.9589C31.7536 37.7286 31.6716 37.4763 31.4756 37.3339L24.9815 32.6156C24.5434 32.2973 24.7686 31.6044 25.3101 31.6044H33.3373C33.5795 31.6044 33.7941 31.4484 33.8689 31.2181L36.3495 23.5838Z" fill="#E9F6F8"/>
<path fill-rule="evenodd" clip-rule="evenodd" d="M12.5991 9.69736C12.5991 7.95767 14.0094 6.54736 15.7491 6.54736H56.2491C57.9888 6.54736 59.3991 7.95767 59.3991 9.69736V45.6974C59.3991 46.1944 58.9962 46.5974 58.4991 46.5974C58.0021 46.5974 57.5991 46.1944 57.5991 45.6974V9.69736C57.5991 8.95178 56.9947 8.34736 56.2491 8.34736H15.7491C15.0035 8.34736 14.3991 8.95178 14.3991 9.69736V62.3068C14.3991 63.3103 15.4552 63.9631 16.3529 63.5143L34.5904 54.3955C35.4772 53.9521 36.521 53.9521 37.4078 54.3955L55.6454 63.5143C56.543 63.9631 57.5991 63.3103 57.5991 62.3068V52.4474C57.5991 51.9503 58.0021 51.5474 58.4991 51.5474C58.9962 51.5474 59.3991 51.9503 59.3991 52.4474V62.3068C59.3991 64.6484 56.9348 66.1714 54.8404 65.1242L36.6029 56.0055C36.2228 55.8154 35.7754 55.8154 35.3954 56.0055L17.1578 65.1242C15.0634 66.1714 12.5991 64.6484 12.5991 62.3068V9.69736Z" fill="#0C9AB0"/>
<path fill-rule="evenodd" clip-rule="evenodd" d="M33.8681 31.2179C33.7932 31.4483 33.5786 31.6042 33.3364 31.6042H25.3092C24.7677 31.6042 24.5425 32.2972 24.9806 32.6155L31.4748 37.3338C31.6707 37.4761 31.7527 37.7284 31.6778 37.9588L29.1973 45.5931C29.03 46.1081 29.6194 46.5364 30.0575 46.2181L36.5517 41.4998C36.7476 41.3575 37.0129 41.3575 37.2088 41.4998L43.703 46.2181C44.1411 46.5364 44.7306 46.1081 44.5632 45.5931L42.0827 37.9588C42.0078 37.7284 42.0898 37.4761 42.2858 37.3338L48.7799 32.6155C49.218 32.2972 48.9928 31.6042 48.4513 31.6042H40.4241C40.1819 31.6042 39.9673 31.4483 39.8925 31.2179L37.4119 23.5836C37.2446 23.0686 36.5159 23.0686 36.3486 23.5836L33.8681 31.2179ZM41.3257 29.8042L39.1238 23.0274C38.4176 20.854 35.3429 20.854 34.6367 23.0274L32.4348 29.8042H25.3092C23.024 29.8042 22.0738 32.7285 23.9226 34.0717L29.6873 38.26L27.4854 45.0368C26.7792 47.2102 29.2668 49.0175 31.1156 47.6743L36.8803 43.486L42.6449 47.6743C44.4937 49.0175 46.9813 47.2102 46.2751 45.0368L44.0732 38.26L49.8379 34.0717C51.6867 32.7285 50.7365 29.8042 48.4513 29.8042H41.3257Z" fill="#0C9AB0"/>
<path fill-rule="evenodd" clip-rule="evenodd" d="M49.7254 11.0474C50.2225 11.0474 50.6254 11.4503 50.6254 11.9474V14.2199C50.6254 14.7169 50.2225 15.1199 49.7254 15.1199C49.2284 15.1199 48.8254 14.7169 48.8254 14.2199V11.9474C48.8254 11.4503 49.2284 11.0474 49.7254 11.0474ZM53.7754 11.0474C54.2725 11.0474 54.6754 11.4503 54.6754 11.9474V14.2199C54.6754 14.7169 54.2725 15.1199 53.7754 15.1199C53.2784 15.1199 52.8754 14.7169 52.8754 14.2199V11.9474C52.8754 11.4503 53.2784 11.0474 53.7754 11.0474ZM18.2254 11.0699C18.7225 11.0699 19.1254 11.4728 19.1254 11.9699V14.2424C19.1254 14.7394 18.7225 15.1424 18.2254 15.1424C17.7284 15.1424 17.3254 14.7394 17.3254 14.2424V11.9699C17.3254 11.4728 17.7284 11.0699 18.2254 11.0699ZM22.2754 11.0699C22.7725 11.0699 23.1754 11.4728 23.1754 11.9699V14.2424C23.1754 14.7394 22.7725 15.1424 22.2754 15.1424C21.7784 15.1424 21.3754 14.7394 21.3754 14.2424V11.9699C21.3754 11.4728 21.7784 11.0699 22.2754 11.0699ZM26.3254 11.0699C26.8225 11.0699 27.2254 11.4728 27.2254 11.9699V14.2424C27.2254 14.7394 26.8225 15.1424 26.3254 15.1424C25.8284 15.1424 25.4254 14.7394 25.4254 14.2424V11.9699C25.4254 11.4728 25.8284 11.0699 26.3254 11.0699ZM30.3754 11.0699C30.8725 11.0699 31.2754 11.4728 31.2754 11.9699V14.2424C31.2754 14.7394 30.8725 15.1424 30.3754 15.1424C29.8784 15.1424 29.4754 14.7394 29.4754 14.2424V11.9699C29.4754 11.4728 29.8784 11.0699 30.3754 11.0699ZM33.9754 11.0699C34.4725 11.0699 34.8754 11.4728 34.8754 11.9699V14.2424C34.8754 14.7394 34.4725 15.1424 33.9754 15.1424C33.4784 15.1424 33.0754 14.7394 33.0754 14.2424V11.9699C33.0754 11.4728 33.4784 11.0699 33.9754 11.0699ZM38.0254 11.0699C38.5225 11.0699 38.9254 11.4728 38.9254 11.9699V14.2424C38.9254 14.7394 38.5225 15.1424 38.0254 15.1424C37.5284 15.1424 37.1254 14.7394 37.1254 14.2424V11.9699C37.1254 11.4728 37.5284 11.0699 38.0254 11.0699ZM42.0754 11.0699C42.5725 11.0699 42.9754 11.4728 42.9754 11.9699V14.2424C42.9754 14.7394 42.5725 15.1424 42.0754 15.1424C41.5784 15.1424 41.1754 14.7394 41.1754 14.2424V11.9699C41.1754 11.4728 41.5784 11.0699 42.0754 11.0699ZM46.1254 11.0699C46.6225 11.0699 47.0254 11.4728 47.0254 11.9699V14.2424C47.0254 14.7394 46.6225 15.1424 46.1254 15.1424C45.6284 15.1424 45.2254 14.7394 45.2254 14.2424V11.9699C45.2254 11.4728 45.6284 11.0699 46.1254 11.0699Z" fill="#EF4550"/>
</g>
<defs>
<clipPath id="clip0_360_20271">
<rect width="72" height="72" fill="white"/>
</clipPath>
</defs>
</svg>
