<svg width="33" height="32" viewBox="0 0 33 32" fill="none" xmlns="http://www.w3.org/2000/svg">
<g clip-path="url(#clip0_339_8121)">
<rect width="32" height="32" transform="translate(0.5)" fill="white"/>
<path d="M16.5 32C25.3366 32 32.5 24.8366 32.5 16C32.5 7.16344 25.3366 0 16.5 0C7.66344 0 0.5 7.16344 0.5 16C0.5 24.8366 7.66344 32 16.5 32Z" fill="#E9F6F8"/>
<path d="M7.5 23.4995V19.4135C7.5 16.8482 8.16624 14.3269 9.43347 12.0964L11.3669 9.69336C14.6892 10.8623 18.3114 10.8622 21.6336 9.69336L24.0668 12.0964C25.6492 14.3096 26.5 16.9623 26.5 19.683V23.4995H7.5Z" fill="#BDE4EA"/>
<path d="M5.5 25.6957C5.5 24.4956 6.21519 23.411 7.31824 22.9383L13.2 20.4175V19.5C13.2 18.9477 13.6477 18.5 14.2 18.5H18.8903C19.4836 18.5 19.9464 19.0136 19.8849 19.6037L19.8 20.4175L25.6818 22.9383C26.7848 23.411 27.5 24.4956 27.5 25.6957V27.2175C27.5 28.3221 26.6046 29.2175 25.5 29.2175H7.5C6.39543 29.2175 5.5 28.3221 5.5 27.2175V25.6957Z" fill="white"/>
<path d="M13.1992 18.5V20.293C13.1992 20.3416 13.2092 20.3897 13.2285 20.4344V20.4344C14.4673 23.3001 18.5309 23.3001 19.7698 20.4344V20.4344C19.7891 20.3897 19.799 20.3416 19.799 20.293V18.5" stroke="#0C9AB0" stroke-width="0.8"/>
<path d="M13.2 20.418L7.31824 22.9387C6.21519 23.4115 5.5 24.4961 5.5 25.6962V27.218C5.5 28.3225 6.39543 29.218 7.5 29.218H10.6519M19.8 20.418L25.6818 22.9387C26.7848 23.4115 27.5 24.4961 27.5 25.6962V27.218C27.5 28.3225 26.6046 29.218 25.5 29.218H22.2555" stroke="#0C9AB0" stroke-width="0.8" stroke-linecap="round"/>
<path d="M21.6336 14.45C21.6336 17.2851 19.3353 19.5834 16.5003 19.5834C13.6652 19.5834 11.3669 17.2851 11.3669 14.45V9.69385L9.43347 12.0969L9.89116 9.05138C10.2647 6.56542 12.0018 4.49941 14.3866 3.70446C15.7584 3.24719 17.2416 3.24719 18.6134 3.70446L18.7211 3.74038C21.065 4.52168 22.8261 6.47701 23.3587 8.8896L24.0668 12.0969L21.6336 9.69385V14.45Z" fill="white"/>
<path d="M21.6336 9.69385V14.45C21.6336 17.2851 19.3353 19.5834 16.5003 19.5834C13.6652 19.5834 11.3669 17.2851 11.3669 14.45V9.69385M21.6336 9.69385V9.69385C18.3114 10.8627 14.6892 10.8628 11.3669 9.69385V9.69385M21.6336 9.69385L24.0668 12.0969M11.3669 9.69385L9.43347 12.0969M7.5 22.5V19.414C7.5 16.8487 8.16624 14.3274 9.43347 12.0969V12.0969M26.5 23.5V19.6835C26.5 16.9627 25.6492 14.3101 24.0668 12.0969V12.0969M9.43347 12.0969L9.89116 9.05138C10.2647 6.56542 12.0018 4.49941 14.3866 3.70446V3.70446C15.7584 3.24719 17.2416 3.24719 18.6134 3.70446L18.7211 3.74038C21.065 4.52168 22.8261 6.47701 23.3587 8.8896L24.0668 12.0969" stroke="#0C9AB0" stroke-width="0.8" stroke-linecap="round" stroke-linejoin="round"/>
<path d="M15.0331 12.7333C15.0331 13.1383 14.7047 13.4667 14.2997 13.4667C13.8947 13.4667 13.5664 13.1383 13.5664 12.7333C13.5664 12.3283 13.8947 12 14.2997 12C14.7047 12 15.0331 12.3283 15.0331 12.7333Z" fill="#0C9AB0"/>
<path d="M19.4335 12.7333C19.4335 13.1383 19.1051 13.4667 18.7001 13.4667C18.2951 13.4667 17.9668 13.1383 17.9668 12.7333C17.9668 12.3283 18.2951 12 18.7001 12C19.1051 12 19.4335 12.3283 19.4335 12.7333Z" fill="#0C9AB0"/>
<path d="M10.521 5.97903C10.8091 5.69089 11.2458 5.61171 11.6167 5.78033L11.7551 5.84322C14.7811 7.21869 18.2429 7.2738 21.3112 5.99535L21.8236 5.78184C22.2165 5.61812 22.6704 5.75553 22.9065 6.10971V6.10971C23.2152 6.57273 23.028 7.20228 22.5165 7.42149L21.7059 7.76892C18.3815 9.19364 14.6185 9.19364 11.2942 7.76892L10.8271 7.56877C10.1915 7.29634 10.032 6.46805 10.521 5.97903V5.97903Z" fill="#BDE4EA" stroke="#0C9AB0" stroke-width="0.8"/>
<path d="M16 24.2998H17" stroke="#EF4550" stroke-width="0.8" stroke-linecap="round"/>
<path d="M16 26.2998H17" stroke="#EF4550" stroke-width="0.8" stroke-linecap="round"/>
<path d="M16 28.2998H17" stroke="#EF4550" stroke-width="0.8" stroke-linecap="round"/>
</g>
<defs>
<clipPath id="clip0_339_8121">
<rect width="32" height="32" fill="white" transform="translate(0.5)"/>
</clipPath>
</defs>
</svg>
