<svg width="32" height="32" viewBox="0 0 32 32" fill="none" xmlns="http://www.w3.org/2000/svg">
<circle cx="16" cy="16" r="16" fill="#E9F6F8"/>
<circle cx="16.0003" cy="16.0003" r="13.1429" fill="white" stroke="#0C9AB0" stroke-width="0.8"/>
<path d="M8.99995 20.8669L7.92981 20.1181C7.81987 20.0411 7.6899 20 7.55683 20C7.27907 20 7.03083 20.1779 6.93521 20.4456L6.46848 21.7519C6.44153 21.8273 6.42773 21.9071 6.42773 21.9874V22.6774C6.42773 22.7578 6.44153 22.8375 6.46848 22.913L7.05365 24.5508C7.07205 24.6023 7.07439 25.3478 7.07402 25.8417C7.07381 26.1169 7.18513 26.3811 7.39129 26.5633C7.49227 26.6525 7.59462 26.7402 7.6983 26.8262C8.11646 27.1732 8.73393 27.0588 9.03858 26.6089C9.07561 26.5571 9.10534 26.5002 9.1269 26.4398L9.72857 24.7558C9.75013 24.6955 9.77986 24.6385 9.81689 24.5867L10.2987 23.9125C10.3825 23.7951 10.4277 23.6534 10.4277 23.5079V22.32C10.4277 22.0692 10.2296 21.8659 9.98528 21.8659C9.84434 21.8659 9.71183 21.797 9.62848 21.6804L9.162 21.0276C9.11726 20.965 9.06246 20.9106 8.99995 20.8669Z" fill="#BDE4EA"/>
<path d="M25.1985 6.85742L24.4363 8.09605C24.321 8.29262 24.1456 8.44693 23.936 8.53625L20.7035 9.91369C20.3326 10.0717 19.9042 10.0063 19.5974 9.74479L19.3561 9.53915C19.1637 9.37521 18.9193 9.28517 18.6666 9.28517H17.5866C17.2095 9.28517 16.8605 9.48504 16.6696 9.81044L16.084 10.8087C15.9882 10.972 15.9377 11.1579 15.9377 11.3472V12.3397C15.9377 12.6514 15.8011 12.9474 15.5639 13.1495L14.0152 14.4694C13.9151 14.5547 13.8574 14.6796 13.8574 14.8112C13.8574 15.133 14.186 15.3503 14.482 15.2242L15.738 14.6889C15.8698 14.6328 16.0115 14.6039 16.1547 14.6039H18.4493C18.8264 14.6039 19.1753 14.8037 19.3662 15.1291L20.0073 16.2219C20.0675 16.3244 20.1444 16.4161 20.2348 16.4932L21.9654 17.9681C22.1029 18.0853 22.2777 18.1496 22.4584 18.1496H22.5134C22.9028 18.1496 23.2186 17.8338 23.2186 17.4441C23.2186 16.9383 23.735 16.5968 24.2001 16.795L24.9761 17.1257C25.1857 17.215 25.3611 17.3693 25.4764 17.5659L26.0308 18.5108C26.2217 18.8362 26.5706 19.0361 26.9478 19.0361H26.9876C27.2403 19.0361 27.4847 18.9461 27.6771 18.7821L27.7297 18.7373C28.1271 18.3986 28.6965 18.3474 29.0939 18.6861C29.2202 17.9519 29.286 17.1971 29.286 16.427C29.286 12.6685 27.7184 9.27443 25.1985 6.85742Z" fill="#BDE4EA"/>
<path d="M12.8892 4.44014H12.1472C11.9986 4.44014 11.8543 4.38628 11.7371 4.28708L11.4472 4C11.1615 4.1155 10.8805 4.24173 10.6048 4.37824C10.166 4.59551 9.98575 5.1164 10.1606 5.57379L10.55 6.59227C10.5712 6.66412 10.582 6.73914 10.582 6.81462V11.1649C10.582 11.2026 10.5874 11.2401 10.5981 11.2761L10.946 12.4537C11.0004 12.6377 11.25 12.5951 11.25 12.4019C11.25 12.3694 11.2586 12.3376 11.2747 12.3103L11.8563 11.3263C11.8971 11.2572 11.9484 11.1961 12.0081 11.1456L12.996 10.3097C13.1588 10.1721 13.2539 9.96042 13.2539 9.73619V7.9449C13.2539 7.86943 13.2647 7.79441 13.286 7.72255L13.8254 5.89708C13.8865 5.69026 13.8593 5.46455 13.7513 5.28181L13.4511 4.77383C13.3282 4.56586 13.1165 4.44014 12.8892 4.44014Z" fill="#BDE4EA"/>
<path d="M8.61387 6.40456L9.10186 5.69457C9.2221 5.51961 9.28 5.32937 9.28571 5.14258C5.51671 7.50255 3 11.7663 3 16.6342C3 17.1795 3.03157 17.7171 3.09294 18.2454L4.81752 19.3606C5.0929 19.5386 5.45953 19.3448 5.45953 19.0211C5.45953 18.9125 5.41522 18.8083 5.33649 18.732L4.50652 17.9269C4.03987 17.4743 4.16654 16.7052 4.75473 16.42L5.14057 16.2328C5.34761 16.1324 5.51589 15.9688 5.62015 15.7666L6.2844 14.478C6.36837 14.3151 6.49426 14.1765 6.64958 14.0761L8.56819 12.8354C8.93053 12.6011 8.98108 12.0988 8.67245 11.7994C8.46157 11.5949 8.40933 11.2801 8.54318 11.0204L9.06963 9.99916C9.19882 9.74854 9.22007 9.4575 9.12861 9.19136L8.48733 7.32529C8.38098 7.0158 8.42777 6.67533 8.61387 6.40456Z" fill="#BDE4EA"/>
<ellipse cx="16" cy="16" rx="8" ry="13" stroke="#91D2DC" stroke-width="0.8"/>
<path d="M6.60547 25.1621C8.97219 23.83 12.3063 23.0004 16.0003 23.0004C19.684 23.0004 23.0099 23.8254 25.3755 25.1511" stroke="#91D2DC" stroke-width="0.8"/>
<path d="M6.58203 6.82568C8.95009 8.16514 12.2936 9 15.9992 9C19.6799 9 23.0033 8.17636 25.3684 6.85269" stroke="#91D2DC" stroke-width="0.8"/>
<path d="M16 3V16.25" stroke="#91D2DC" stroke-width="0.8"/>
<path d="M2.75 16.25H29.25" stroke="#91D2DC" stroke-width="0.8"/>
<circle cx="16.0003" cy="16.0003" r="13.1429" stroke="#0C9AB0" stroke-width="0.8"/>
<circle cx="25.5" cy="15.5" r="0.75" fill="#EF4550"/>
<circle cx="5.75" cy="12.75" r="0.75" fill="#EF4550"/>
<circle cx="7.75" cy="21.75" r="0.75" fill="#EF4550"/>
<circle cx="26.75" cy="18.75" r="0.75" fill="#EF4550"/>
<circle cx="24.75" cy="10.75" r="0.75" fill="#EF4550"/>
<circle cx="18.75" cy="10.75" r="0.75" fill="#EF4550"/>
<circle cx="17.75" cy="12.75" r="0.75" fill="#EF4550"/>
<circle cx="20.75" cy="13.75" r="0.75" fill="#EF4550"/>
<circle cx="7.75" cy="9.75" r="0.75" fill="#EF4550"/>
</svg>
