<svg width="33" height="32" viewBox="0 0 33 32" fill="none" xmlns="http://www.w3.org/2000/svg">
<g clip-path="url(#clip0_339_8105)">
<rect width="32" height="32" transform="translate(0.5)" fill="white"/>
<path d="M16.5 32C25.3366 32 32.5 24.8366 32.5 16C32.5 7.16344 25.3366 0 16.5 0C7.66344 0 0.5 7.16344 0.5 16C0.5 24.8366 7.66344 32 16.5 32Z" fill="#E9F6F8"/>
<path d="M13.1992 15.2002V19.6002" stroke="#0C9AB0" stroke-width="0.8"/>
<path d="M19.8008 15.2002V19.6002" stroke="#0C9AB0" stroke-width="0.8"/>
<path d="M5.5 23.6962C5.5 22.4961 6.21519 21.4115 7.31824 20.9387L13.2 18.418C13.2 18.418 13.457 21.168 16.5 21.168C19.543 21.168 19.8 18.418 19.8 18.418L25.6818 20.9387C26.7848 21.4115 27.5 22.4961 27.5 23.6962V25.218C27.5 26.3225 26.6046 27.218 25.5 27.218H7.5C6.39543 27.218 5.5 26.3225 5.5 25.218V23.6962Z" fill="#BDE4EA"/>
<path d="M10.6519 27.218H7.5C6.39543 27.218 5.5 26.3225 5.5 25.218V23.6962C5.5 22.4961 6.21519 21.4115 7.31824 20.9387L13.2 18.418C13.2 18.418 13.457 21.168 16.5 21.168C19.543 21.168 19.8 18.418 19.8 18.418L25.6818 20.9387C26.7848 21.4115 27.5 22.4961 27.5 23.6962V25.218C27.5 26.3225 26.6046 27.218 25.5 27.218H22.2555" stroke="#0C9AB0" stroke-width="0.8" stroke-linecap="round"/>
<path d="M16.5004 17.583C19.3355 17.583 21.6337 15.2847 21.6337 12.4497C21.6337 12.4497 23.1004 12.0495 23.1004 10.6163C23.1004 9.1832 21.6337 8.78299 21.6337 8.78299L20.9004 4.74966C20.9004 4.74966 12.4221 2.25352 11.3671 5.84966C11.0446 6.94887 11.3671 8.78299 11.3671 8.78299C11.3671 8.78299 9.90039 9.07633 9.90039 10.543C9.90039 12.0097 11.3671 12.4497 11.3671 12.4497C11.3671 15.2847 13.6653 17.583 16.5004 17.583Z" fill="white"/>
<path d="M21.6337 7.99955V8.78287C21.6337 8.78287 23.1004 9.18308 23.1004 10.6162C23.1004 12.0493 21.6337 12.4495 21.6337 12.4495C21.6337 15.2846 19.3355 17.5829 16.5004 17.5829C13.6653 17.5829 11.3671 15.2846 11.3671 12.4495C11.3671 12.4495 9.90039 12.0095 9.90039 10.5429C9.90039 9.07621 11.3671 8.78287 11.3671 8.78287V7.69336" stroke="#0C9AB0" stroke-width="0.8" stroke-linecap="round" stroke-linejoin="round"/>
<circle cx="14.2997" cy="10.4335" r="0.733333" fill="#0C9AB0"/>
<circle cx="18.7001" cy="10.4335" r="0.733333" fill="#0C9AB0"/>
<path d="M16.5004 2C11.8561 2 10 5.52355 10 9.5C12.9333 4.7 17.7838 7.95 19.2504 4.75C20.7171 7.95 20.9004 7.3 23.1004 9.7C23.1004 5.72355 21.1446 2 16.5004 2Z" fill="#91D2DC"/>
<path d="M10 9.5H9.6V10.9216L10.3413 9.70858L10 9.5ZM23.1004 9.7L22.8055 9.97029L23.5004 10.7283V9.7H23.1004ZM19.2504 4.75L19.614 4.58334C19.5489 4.44116 19.4068 4.35 19.2504 4.35C19.094 4.35 18.9519 4.44116 18.8868 4.58334L19.2504 4.75ZM10.4 9.5C10.4 7.56628 10.8524 5.78666 11.8274 4.50047C12.7899 3.23069 14.2925 2.4 16.5004 2.4V1.6C14.064 1.6 12.3164 2.53109 11.1898 4.01719C10.0757 5.48689 9.6 7.45727 9.6 9.5H10.4ZM16.5004 2.4C18.7008 2.4 20.2304 3.27487 21.2218 4.59862C22.2248 5.9378 22.7004 7.7701 22.7004 9.7H23.5004C23.5004 7.65345 22.9981 5.63575 21.8621 4.11904C20.7146 2.58691 18.9443 1.6 16.5004 1.6V2.4ZM10.3413 9.70858C11.0351 8.57326 11.8298 7.93057 12.6474 7.54452C13.4742 7.15412 14.3457 7.0155 15.2175 6.92276C16.0635 6.83276 16.9616 6.78477 17.7178 6.54907C18.5105 6.30198 19.1911 5.83947 19.614 4.91666L18.8868 4.58334C18.5764 5.26053 18.1006 5.59177 17.4797 5.78531C16.8223 5.99023 16.0495 6.02974 15.1329 6.12724C14.2421 6.222 13.2593 6.37088 12.3058 6.82111C11.3431 7.27568 10.4315 8.02674 9.65869 9.29142L10.3413 9.70858ZM18.8868 4.91666C19.6257 6.52898 20.0598 7.21349 20.6086 7.79865C20.8727 8.08016 21.1648 8.33954 21.5039 8.65633C21.848 8.97794 22.2643 9.37986 22.8055 9.97029L23.3953 9.42971C22.8365 8.82014 22.4048 8.40331 22.0501 8.0718C21.6901 7.73546 21.4323 7.50734 21.1921 7.25135C20.7327 6.76151 20.3417 6.17102 19.614 4.58334L18.8868 4.91666Z" fill="#0C9AB0"/>
<circle cx="16.5" cy="25" r="5" fill="white" stroke="#0C9AB0" stroke-width="0.8"/>
<path d="M17.5877 23.5029L17.1422 22.4756C16.8985 21.9136 16.1015 21.9136 15.8578 22.4756L15.4123 23.5029L14.2976 23.6091C13.6878 23.6672 13.4415 24.4252 13.9007 24.8307L14.7401 25.5718L14.4966 26.6648C14.3634 27.2627 15.0082 27.7312 15.5358 27.4198L16.5 26.8505L17.4642 27.4198C17.9918 27.7312 18.6366 27.2627 18.5034 26.6648L18.2599 25.5718L19.0993 24.8307C19.5585 24.4252 19.3122 23.6672 18.7024 23.6091L17.5877 23.5029Z" stroke="#EF4550" stroke-width="0.8"/>
</g>
<defs>
<clipPath id="clip0_339_8105">
<rect width="32" height="32" fill="white" transform="translate(0.5)"/>
</clipPath>
</defs>
</svg>
