<svg width="72" height="72" viewBox="0 0 72 72" fill="none" xmlns="http://www.w3.org/2000/svg">
<circle cx="36" cy="36" r="36" fill="#E9F6F8"/>
<path d="M6.75 14.1648C6.75 13.117 7.47321 12.2079 8.49413 11.9724L25.5027 8.04784C25.9889 7.93567 26.4985 7.98826 26.9515 8.19735L45.0525 16.5522C45.5055 16.7613 46.0152 16.8139 46.5014 16.7017L62.494 13.0108C63.9039 12.6854 65.25 13.7562 65.25 15.2032V57.8199C65.25 58.8745 64.5176 59.7876 63.4881 60.0163L45.7798 63.9515C45.2754 64.0636 44.7477 63.9986 44.2855 63.7675L27.7145 55.482C27.2523 55.2509 26.7246 55.186 26.2202 55.2981L9.48809 59.0163C8.08294 59.3286 6.75 58.2593 6.75 56.8199V14.1648Z" fill="white"/>
<path fill-rule="evenodd" clip-rule="evenodd" d="M25.7773 12.1918L42.3846 19.5728C42.8388 19.7747 43.3707 19.5701 43.5725 19.1159C43.7744 18.6617 43.5698 18.1298 43.1156 17.928L26.3745 10.4874C26.1135 10.3715 25.8225 10.3412 25.5433 10.4011L10.2922 13.6691L10.4808 14.5492L10.2922 13.6691C9.66979 13.8025 9.2251 14.3526 9.2251 14.9892V20.2504C9.2251 20.7475 9.62804 21.1504 10.1251 21.1504C10.6222 21.1504 11.0251 20.7475 11.0251 20.2504V15.353L25.7773 12.1918ZM61.0889 15.4733C61.9431 15.2536 62.7751 15.8987 62.7751 16.7807V57.0116C62.7751 57.6482 62.3304 58.1983 61.708 58.3316L49.6887 60.9072C49.2027 61.0113 48.7242 60.7018 48.6201 60.2158C48.5159 59.7297 48.8255 59.2513 49.3115 59.1472L60.9751 56.6478V17.3611L50.5342 20.0459C50.0528 20.1697 49.5623 19.8798 49.4385 19.3984C49.3147 18.917 49.6046 18.4264 50.086 18.3026L61.0889 15.4733L61.313 16.3449L61.0889 15.4733ZM10.1251 29.4754C10.6222 29.4754 11.0251 29.8783 11.0251 30.3754V53.994L18.7701 52.2067C19.2544 52.095 19.7376 52.397 19.8494 52.8813C19.9612 53.3657 19.6591 53.8489 19.1748 53.9607L10.8787 55.8752C10.0327 56.0704 9.2251 55.4279 9.2251 54.5597V30.3754C9.2251 29.8783 9.62804 29.4754 10.1251 29.4754ZM10.4739 54.1212C10.4741 54.1212 10.4744 54.1211 10.4746 54.1211L10.4739 54.1212Z" fill="#BDE4EA"/>
<path d="M41.625 25.8751L39.6651 26.8551C39.4919 26.9417 39.2826 26.9077 39.1457 26.7708L38.3818 26.0069C38.2974 25.9225 38.183 25.8751 38.0636 25.8751H36.2781C36.1077 25.8751 35.9518 25.9714 35.8756 26.1239L34.9225 28.0301C34.8913 28.0926 34.875 28.1615 34.875 28.2314V30.1887C34.875 30.3081 34.8276 30.4225 34.7432 30.5069L32.7568 32.4933C32.6724 32.5777 32.625 32.6922 32.625 32.8115V33.022C32.625 33.3565 32.977 33.5741 33.2762 33.4245L34.78 32.6726C34.8425 32.6414 34.9114 32.6251 34.9812 32.6251H37.125H37.9719C38.1423 32.6251 38.2982 32.7214 38.3744 32.8739L39.3423 34.8098C39.364 34.8531 39.3924 34.8926 39.4266 34.9268L41.4932 36.9933C41.5776 37.0777 41.692 37.1251 41.8114 37.1251H42.3C42.5485 37.1251 42.75 36.9237 42.75 36.6751V35.6032C42.75 35.2687 43.102 35.0511 43.4012 35.2007L44.8658 35.933C44.9529 35.9766 45.0235 36.0472 45.0671 36.1343L46.0006 38.0014C46.0768 38.1538 46.2327 38.2501 46.4031 38.2501H47.0636C47.183 38.2501 47.2974 38.2027 47.3818 38.1183L48.0568 37.4433C48.2325 37.2676 48.5175 37.2676 48.6932 37.4433L49.5 38.2501L49.8568 38.6069C50.1403 38.8904 50.625 38.6896 50.625 38.2887V37.3115C50.625 37.1922 50.6724 37.0777 50.7568 36.9933L51.75 36.0001L52.7432 35.0069C52.8276 34.9225 52.875 34.8081 52.875 34.6887V33.0751C52.875 32.8266 53.0765 32.6251 53.325 32.6251H53.7219C53.8923 32.6251 54.0482 32.5288 54.1244 32.3764L55.0244 30.5764C55.0877 30.4497 55.0877 30.3006 55.0244 30.1739L54.0475 28.2201C54.0163 28.1577 54 28.0888 54 28.0189V27.2782C54 27.1078 54.0963 26.952 54.2488 26.8758L55.5988 26.2007C55.898 26.0511 56.25 26.2687 56.25 26.6032V28.8001C56.25 29.0487 56.4515 29.2501 56.7 29.2501H56.925C57.1735 29.2501 57.375 29.0487 57.375 28.8001V28.1251V25.9482C57.375 25.8998 57.3828 25.8517 57.3981 25.8058L58.3026 23.0924C58.3997 22.801 58.1828 22.5001 57.8757 22.5001H56.25H54H51.8562C51.7864 22.5001 51.7175 22.5164 51.655 22.5476L49.7012 23.5245C49.5746 23.5878 49.4254 23.5878 49.2988 23.5245L47.3153 22.5328C47.2721 22.5112 47.2326 22.4827 47.1984 22.4485L46.4432 21.6933C46.2675 21.5176 45.9825 21.5176 45.8068 21.6933L45.0516 22.4485C45.0174 22.4827 44.989 22.5222 44.9673 22.5654L43.9421 24.616C43.8985 24.7031 43.8279 24.7737 43.7408 24.8172L41.625 25.8751Z" fill="#BDE4EA"/>
<path d="M31.5756 37.012L33.5593 34.0364C33.6719 33.8675 33.8836 33.7949 34.0761 33.8591L37.0557 34.8523C37.1016 34.8676 37.1497 34.8754 37.198 34.8754H38.925C39.1735 34.8754 39.375 35.0769 39.375 35.3254V36.801C39.375 36.9947 39.4989 37.1667 39.6827 37.2279L42.0592 38.0201C42.3766 38.1259 42.4717 38.5287 42.2351 38.7652L40.6318 40.3686C40.5474 40.453 40.5 40.5674 40.5 40.6868V42.6774C40.5 42.7257 40.4922 42.7738 40.4769 42.8197L39.4776 45.8177C39.4163 46.0014 39.2443 46.1254 39.0507 46.1254H37.575C37.3265 46.1254 37.125 45.9239 37.125 45.6754V45.1868C37.125 45.0674 37.0776 44.953 36.9932 44.8686L36.1318 44.0072C36.0474 43.9228 36 43.8083 36 43.689V41.7316C36 41.6617 35.9837 41.5928 35.9525 41.5304L34.9994 39.6241C34.9231 39.4717 34.7673 39.3754 34.5969 39.3754H31.95C31.7015 39.3754 31.5 39.1739 31.5 38.9254V37.2616C31.5 37.1728 31.5263 37.0859 31.5756 37.012Z" fill="#BDE4EA"/>
<path fill-rule="evenodd" clip-rule="evenodd" d="M26.5744 9.01509C26.3026 8.88964 25.9969 8.85808 25.7052 8.92539L8.69658 12.8499C8.08402 12.9912 7.6501 13.5367 7.6501 14.1653V56.8205C7.6501 57.6842 8.44986 58.3257 9.29295 58.1383L26.025 54.4201C26.7313 54.2632 27.47 54.3541 28.1171 54.6777L44.6881 62.9631C44.9654 63.1018 45.282 63.1408 45.5847 63.0735L63.2929 59.1383C63.9106 59.0011 64.3501 58.4532 64.3501 57.8205V15.2038C64.3501 14.3356 63.5425 13.6931 62.6965 13.8884L46.7038 17.5792C46.0232 17.7363 45.3096 17.6627 44.6754 17.37L26.5744 9.01509ZM25.3005 7.17147C25.9811 7.01443 26.6946 7.08806 27.3288 7.38079L45.4297 15.7356C45.7016 15.8611 46.0074 15.8927 46.2991 15.8253L62.2917 12.1345C64.2656 11.6789 66.1501 13.1781 66.1501 15.2038V57.8205C66.1501 59.2969 65.1247 60.5752 63.6834 60.8955L45.9752 64.8307C45.2689 64.9876 44.5302 64.8967 43.8831 64.5731L27.3121 56.2876C27.0348 56.149 26.7182 56.11 26.4155 56.1772L9.68343 59.8955C7.71621 60.3326 5.8501 58.8357 5.8501 56.8205V14.1653C5.8501 12.6985 6.86259 11.4258 8.29188 11.096L25.3005 7.17147Z" fill="#0C9AB0"/>
<path fill-rule="evenodd" clip-rule="evenodd" d="M23.8376 21.1504L21.8277 22.1553L18.6127 24.2986C18.3909 24.4465 18.1304 24.5254 17.8638 24.5254H16.9813C16.7717 24.5254 16.565 24.4766 16.3776 24.3829L14.6251 23.5066L12.9082 24.365L12.1501 25.1232V26.1004H13.3137C13.6717 26.1004 14.0151 26.2426 14.2683 26.4958L15.1297 27.3572C15.3829 27.6104 15.5251 27.9537 15.5251 28.3118V32.3254L18.556 36.3666C18.4545 35.804 18.7159 35.1987 19.281 34.9162L20.7043 34.2046L21.6417 32.3298C21.7467 32.1196 21.9048 31.9406 22.1003 31.8102L24.4624 30.2355L24.343 30.1161C23.9322 29.7052 23.8303 29.0775 24.0902 28.5578L24.9034 26.9313L23.9659 24.1188C23.8341 23.7236 23.8922 23.2897 24.1233 22.943L25.3184 21.1504H23.8376ZM23.1276 19.4929C23.315 19.3992 23.5217 19.3504 23.7313 19.3504H26.1593C27.2375 19.3504 27.8806 20.5521 27.2825 21.4492L25.7431 23.7584L26.67 26.5389C26.7832 26.8786 26.7568 27.2493 26.5967 27.5696L25.8452 29.0727L26.1234 29.3508C26.7257 29.9532 26.6264 30.9562 25.9176 31.4287L23.1982 33.2416L22.2472 35.1437C22.1165 35.405 21.9047 35.6168 21.6434 35.7474L20.6444 36.2469L21.8797 37.4822C22.1329 37.7354 22.2751 38.0787 22.2751 38.4368V38.5345C22.2751 39.6128 21.0734 40.2559 20.1763 39.6578L17.565 37.917C17.4377 37.8321 17.3257 37.7262 17.2338 37.6037L13.9951 33.2854C13.8198 33.0517 13.7251 32.7675 13.7251 32.4754V28.4982L13.1273 27.9004H11.7001C10.9545 27.9004 10.3501 27.296 10.3501 26.5504V24.9368C10.3501 24.5787 10.4923 24.2354 10.7455 23.9822L11.6871 23.0406C11.7897 22.938 11.9081 22.8526 12.0379 22.7877L14.0214 21.796C14.4014 21.606 14.8488 21.606 15.2288 21.796L17.0876 22.7254H17.7276L20.9225 20.5955L23.1276 19.4929Z" fill="#0C9AB0"/>
<path fill-rule="evenodd" clip-rule="evenodd" d="M27.1778 20.2205L26.9702 20.4281L27.7576 22.0029C27.8513 22.1903 27.9001 22.397 27.9001 22.6066V26.7879L27.9967 26.981L28.5621 26.4156C28.6647 26.313 28.7831 26.2276 28.9129 26.1627L30.6001 25.3191V23.7316C30.6001 23.522 30.6489 23.3153 30.7426 23.1279L31.53 21.5531L31.1273 21.1504H29.3563C29.1467 21.1504 28.94 21.1016 28.7526 21.0079L27.1778 20.2205ZM26.1344 18.7183C26.5452 18.3074 27.173 18.2056 27.6927 18.4654L29.4626 19.3504H31.3137C31.6717 19.3504 32.0151 19.4926 32.2683 19.7458L33.0321 20.5096C33.443 20.9205 33.5449 21.5482 33.285 22.068L32.4001 23.8378V25.5973C32.4001 26.1086 32.1112 26.5761 31.6538 26.8047L29.7832 27.74L28.9858 28.5375C28.7347 29.4889 27.351 29.7146 26.8618 28.7363L26.2426 27.4979C26.1489 27.3104 26.1001 27.1037 26.1001 26.8941V22.7128L25.2152 20.943C24.9553 20.4232 25.0572 19.7955 25.468 19.3846L26.1344 18.7183Z" fill="#0C9AB0"/>
<path fill-rule="evenodd" clip-rule="evenodd" d="M21.5707 38.0966C21.7994 37.6393 22.2669 37.3504 22.7782 37.3504H23.5189C23.7284 37.3504 23.9352 37.3992 24.1226 37.4929L26.2123 38.5377C26.3421 38.6026 26.4605 38.688 26.5631 38.7906L27.3729 39.6004H27.6751C28.4207 39.6004 29.0251 40.2048 29.0251 40.9504V42.564C29.0251 42.922 28.8829 43.2654 28.6297 43.5186L27.7398 44.4085L26.7127 46.4626C26.6479 46.5923 26.5625 46.7108 26.4599 46.8134L25.4898 47.7835L24.6652 49.4326C24.9562 50.2961 24.0443 51.2787 23.0736 50.7934L22.3027 50.4079C21.8721 50.1926 21.6001 49.7525 21.6001 49.2711V44.0878L20.6176 42.1229C20.5239 41.9354 20.4751 41.7287 20.4751 41.5191V40.6066C20.4751 40.397 20.5239 40.1903 20.6176 40.0029L21.5707 38.0966ZM23.0563 39.1504L22.2751 40.7128V41.4129L23.2576 43.3779C23.3513 43.5653 23.4001 43.772 23.4001 43.9816V47.9379L23.9125 46.9132C23.9773 46.7834 24.0627 46.665 24.1653 46.5624L25.1354 45.5923L26.1625 43.5382C26.2273 43.4084 26.3127 43.29 26.4153 43.1874L27.2251 42.3776V41.4004H27.1865C26.8285 41.4004 26.4851 41.2582 26.2319 41.005L25.342 40.1151L23.4126 39.1504H23.0563Z" fill="#0C9AB0"/>
<path fill-rule="evenodd" clip-rule="evenodd" d="M46.1251 22.6482L45.7398 23.0335L44.7472 25.0187C44.6165 25.28 44.4047 25.4918 44.1434 25.6224L40.0677 27.6603C39.548 27.9202 38.9202 27.8183 38.5094 27.4074L37.8773 26.7754H36.5563L35.7751 28.3378V30.189C35.7751 30.547 35.6329 30.8904 35.3797 31.1436L34.7833 31.74C34.8487 31.7303 34.9149 31.7254 34.9813 31.7254H37.972C38.4833 31.7254 38.9508 32.0143 39.1795 32.4716L40.1148 34.3423L41.8501 36.0776V35.6035C41.8501 34.5999 42.9062 33.9472 43.8038 34.396L45.2684 35.1283C45.5297 35.2589 45.7415 35.4708 45.8722 35.732L46.6813 37.3504H46.8773L47.4205 36.8072C47.9477 36.28 48.8025 36.28 49.3297 36.8072L49.7292 37.2067C49.7541 36.8871 49.8922 36.5855 50.1205 36.3572L51.9751 34.5026V33.0754C51.9751 32.3298 52.5795 31.7254 53.3251 31.7254H53.4439L54.1189 30.3754L53.2426 28.6229C53.1489 28.4354 53.1001 28.2287 53.1001 28.0191V27.2785C53.1001 26.7671 53.389 26.2997 53.8464 26.071L55.1964 25.396C55.6639 25.1622 56.1745 25.2273 56.5565 25.4852L57.2514 23.4004H51.9626L50.1038 24.3297C49.7238 24.5198 49.2764 24.5198 48.8964 24.3297L46.9129 23.338C46.7831 23.2731 46.6647 23.1877 46.5621 23.0851L46.1251 22.6482ZM45.1705 21.0572C45.6977 20.53 46.5525 20.53 47.0797 21.0572L47.7832 21.7607L49.5001 22.6191L51.2526 21.7429C51.44 21.6492 51.6467 21.6004 51.8563 21.6004H57.8758C58.7972 21.6004 59.4479 22.5031 59.1565 23.3773L58.2751 26.0214V28.8004C58.2751 29.546 57.6707 30.1504 56.9251 30.1504H56.7001C56.3883 30.1504 56.1012 30.0447 55.8727 29.8672C56.0182 30.2252 56.0038 30.6305 55.8295 30.9791L54.9295 32.7791C54.7087 33.2206 54.2655 33.5051 53.7751 33.5243V34.689C53.7751 35.047 53.6329 35.3904 53.3797 35.6436L51.5251 37.4982V38.289C51.5251 39.4917 50.071 40.094 49.2205 39.2436L48.3751 38.3982L48.0183 38.755C47.7651 39.0081 47.4217 39.1504 47.0637 39.1504H46.4032C45.8919 39.1504 45.4244 38.8615 45.1957 38.4041L44.3293 36.6712L43.6501 36.3316V36.6754C43.6501 37.421 43.0457 38.0254 42.3001 38.0254H41.8115C41.4535 38.0254 41.1101 37.8831 40.8569 37.63L38.7903 35.5634C38.6877 35.4608 38.6024 35.3423 38.5375 35.2126L37.6939 33.5254H35.0876L33.6788 34.2297C32.7812 34.6785 31.7251 34.0258 31.7251 33.0223V32.8118C31.7251 32.4537 31.8673 32.1104 32.1205 31.8572L33.9751 30.0026V28.2316C33.9751 28.022 34.0239 27.8153 34.1176 27.6279L35.0707 25.7216C35.2994 25.2643 35.7669 24.9754 36.2782 24.9754H38.0637C38.4217 24.9754 38.7651 25.1176 39.0183 25.3708L39.5528 25.9053L43.2043 24.0796L44.1625 22.1632C44.2273 22.0334 44.3127 21.915 44.4153 21.8123L45.1705 21.0572ZM55.3502 28.813L55.3501 28.8004V27.3316L54.9001 27.5566V27.9129L55.3502 28.813Z" fill="#0C9AB0"/>
<path fill-rule="evenodd" clip-rule="evenodd" d="M34.1176 34.8216L32.4001 37.3979V38.4754H34.597C35.1083 38.4754 35.5758 38.7643 35.8045 39.2216L36.7576 41.1279C36.8513 41.3153 36.9001 41.522 36.9001 41.7316V43.5026L37.6297 44.2322C37.8829 44.4854 38.0251 44.8287 38.0251 45.1868V45.2254H38.7264L39.6001 42.6043V40.6868C39.6001 40.3287 39.7423 39.9854 39.9955 39.7322L41.084 38.6437L39.3982 38.0818C38.8469 37.898 38.4751 37.3821 38.4751 36.801V35.7754H37.1981C37.053 35.7754 36.9089 35.752 36.7712 35.7061L34.1176 34.8216ZM36.4501 43.689L36.7683 43.3708L36.4501 43.689ZM32.8106 33.5371C33.1483 33.0306 33.7832 32.8127 34.3608 33.0053L37.2711 33.9754H38.9251C39.6707 33.9754 40.2751 34.5798 40.2751 35.3254V36.4767L42.344 37.1663C43.296 37.4837 43.5813 38.692 42.8716 39.4016L41.4001 40.8732V42.6774C41.4001 42.8225 41.3767 42.9666 41.3308 43.1043L40.3315 46.1023C40.1477 46.6535 39.6318 47.0254 39.0508 47.0254H37.5751C36.8295 47.0254 36.2251 46.421 36.2251 45.6754V45.3732L35.4955 44.6436C35.2423 44.3904 35.1001 44.047 35.1001 43.689V41.8378L34.3189 40.2754H31.9501C31.2045 40.2754 30.6001 39.671 30.6001 38.9254V37.2616C30.6001 36.9951 30.679 36.7345 30.8268 36.5128L32.8106 33.5371Z" fill="#0C9AB0"/>
<path fill-rule="evenodd" clip-rule="evenodd" d="M55.4979 43.6504L54.7683 44.38C54.5151 44.6331 54.1717 44.7754 53.8137 44.7754H52.6501V45.2254H54.9387C55.2967 45.2254 55.6401 45.3676 55.8933 45.6208L56.7547 46.4822C56.7747 46.5022 56.794 46.5227 56.8126 46.5438C56.8312 46.5227 56.8505 46.5022 56.8705 46.4822L57.405 45.9477L56.6354 44.4085L55.8773 43.6504H55.4979ZM54.3569 42.2458C54.6101 41.9926 54.9535 41.8504 55.3115 41.8504H56.0637C56.4217 41.8504 56.7651 41.9926 57.0183 42.2458L57.9599 43.1874C58.0625 43.29 58.1479 43.4084 58.2127 43.5382L59.16 45.4328C59.4199 45.9525 59.318 46.5802 58.9072 46.9911L58.2751 47.6232V47.9254C58.2751 48.671 57.6707 49.2754 56.9251 49.2754H56.7001C55.9545 49.2754 55.3501 48.671 55.3501 47.9254V47.6232L54.7523 47.0254H52.2001C51.4545 47.0254 50.8501 46.421 50.8501 45.6754V44.3254C50.8501 43.5798 51.4545 42.9754 52.2001 42.9754H53.6273L54.3569 42.2458Z" fill="#0C9AB0"/>
<path fill-rule="evenodd" clip-rule="evenodd" d="M37.8979 54.2252C38.395 54.2252 38.7979 54.6282 38.7979 55.1252L38.7978 56.9394C38.7978 57.4365 38.3948 57.8394 37.8977 57.8394C37.4007 57.8393 36.9978 57.4364 36.9978 56.9393L36.9979 55.1252C36.9979 54.6281 37.4008 54.2252 37.8979 54.2252ZM44.7107 57.8814C45.2078 57.8814 45.6107 58.2843 45.6107 58.7814L45.6107 60.4187C45.6107 60.9158 45.2078 61.3187 44.7107 61.3187C44.2137 61.3187 43.8107 60.9158 43.8107 60.4187L43.8107 58.7814C43.8107 58.2843 44.2137 57.8814 44.7107 57.8814ZM34.2909 52.573C34.788 52.573 35.1909 52.976 35.1909 53.473L35.1909 55.0973C35.1909 55.5944 34.788 55.9973 34.2909 55.9973C33.7939 55.9973 33.3909 55.5944 33.3909 55.0974L33.3909 53.473C33.3909 52.976 33.7939 52.573 34.2909 52.573ZM30.6841 50.8502C31.1811 50.8502 31.5841 51.2532 31.5841 51.7502L31.5841 53.2553C31.584 53.7524 31.1811 54.1553 30.684 54.1553C30.187 54.1553 29.784 53.7524 29.7841 53.2553L29.7841 51.7502C29.7841 51.2531 30.187 50.8502 30.6841 50.8502ZM41.5046 56.4752C42.0017 56.4752 42.4046 56.8781 42.4046 57.3752L42.4046 58.7814C42.4046 59.2784 42.0017 59.6814 41.5046 59.6814C41.0076 59.6814 40.6046 59.2784 40.6046 58.7814L40.6046 57.3752C40.6046 56.8781 41.0076 56.4752 41.5046 56.4752Z" fill="#EF4550"/>
</svg>
