<svg width="33" height="32" viewBox="0 0 33 32" fill="none" xmlns="http://www.w3.org/2000/svg">
<g clip-path="url(#clip0_339_8072)">
<rect width="32" height="32" transform="translate(0.5)" fill="white"/>
<path d="M16.5 32C25.3366 32 32.5 24.8366 32.5 16C32.5 7.16344 25.3366 0 16.5 0C7.66344 0 0.5 7.16344 0.5 16C0.5 24.8366 7.66344 32 16.5 32Z" fill="#E9F6F8"/>
<path d="M10.0816 20.2259C10.1369 20.1303 10.2592 20.0975 10.3548 20.1527L14.7716 22.7027C14.8672 22.758 14.9 22.8803 14.8448 22.9759L12.8823 26.3751L11.0612 29.5293C10.9721 29.6836 10.7409 29.6532 10.6948 29.4811L9.86497 26.3841C9.83639 26.2774 9.72672 26.214 9.62003 26.2426L6.52303 27.0725C6.35092 27.1186 6.20897 26.9336 6.29806 26.7793L10.0816 20.2259Z" fill="#BDE4EA" stroke="#0C9AB0" stroke-width="0.8"/>
<path d="M15.7816 22.9759C15.7264 22.8803 15.7592 22.758 15.8548 22.7027L20.2716 20.1527C20.3672 20.0975 20.4896 20.1303 20.5448 20.2259L24.3284 26.7793C24.4174 26.9336 24.2755 27.1186 24.1034 27.0725L21.0064 26.2426C20.8997 26.214 20.79 26.2774 20.7614 26.3841L19.9316 29.4811C19.8855 29.6532 19.6543 29.6836 19.5652 29.5293L15.7816 22.9759Z" fill="#BDE4EA" stroke="#0C9AB0" stroke-width="0.8"/>
<path d="M15.4007 3.44861C15.756 3.18266 16.244 3.18267 16.5993 3.44861L17.647 4.23288C17.8818 4.40869 18.182 4.4725 18.4681 4.40742L19.7442 4.11708C20.1769 4.01862 20.6227 4.21712 20.8391 4.60457L21.4772 5.74717C21.6203 6.0033 21.8686 6.18371 22.1564 6.2406L23.4402 6.49439C23.8756 6.58045 24.2021 6.94313 24.2422 7.38509L24.3604 8.68845C24.3869 8.98062 24.5404 9.24642 24.7801 9.41545L25.8498 10.1695C26.2125 10.4252 26.3633 10.8893 26.2202 11.3094L25.798 12.5481C25.7034 12.8258 25.7355 13.1311 25.8858 13.383L26.5562 14.5069C26.7836 14.888 26.7326 15.3734 26.431 15.6989L25.5415 16.6589C25.3421 16.8741 25.2472 17.166 25.282 17.4573L25.4374 18.7567C25.4901 19.1973 25.2461 19.62 24.8381 19.7947L23.6351 20.3099C23.3654 20.4253 23.16 20.6534 23.0734 20.9337L22.6868 22.184C22.5557 22.608 22.1609 22.8948 21.7171 22.8885L20.4086 22.8698C20.1152 22.8656 19.8348 22.9905 19.6417 23.2113L18.7799 24.1962C18.4877 24.5302 18.0104 24.6317 17.6076 24.4454L16.4197 23.8961C16.1535 23.773 15.8465 23.773 15.5803 23.8961L14.3924 24.4454C13.9896 24.6317 13.5123 24.5302 13.2201 24.1962L12.3583 23.2113C12.1652 22.9905 11.8848 22.8656 11.5914 22.8698L10.2829 22.8885C9.83914 22.8948 9.44432 22.608 9.31322 22.184L8.92662 20.9337C8.83995 20.6534 8.63459 20.4253 8.3649 20.3099L7.16186 19.7947C6.75392 19.62 6.50991 19.1973 6.56259 18.7567L6.71795 17.4573C6.75278 17.166 6.65793 16.8741 6.45854 16.6589L5.56905 15.6989C5.26743 15.3734 5.21642 14.888 5.44377 14.5069L6.11423 13.383C6.26453 13.1311 6.29661 12.8258 6.20198 12.5481L5.77984 11.3094C5.6367 10.8893 5.78751 10.4252 6.15021 10.1695L7.21985 9.41545C7.45963 9.24642 7.61309 8.98062 7.63959 8.68845L7.75779 7.38509C7.79788 6.94313 8.12443 6.58045 8.55978 6.49439L9.84364 6.2406C10.1314 6.18371 10.3797 6.0033 10.5228 5.74717L11.1609 4.60457C11.3773 4.21712 11.8231 4.01862 12.2558 4.11708L13.5319 4.40742C13.818 4.4725 14.1182 4.40869 14.353 4.23288L15.4007 3.44861Z" fill="white" stroke="#0C9AB0" stroke-width="0.8"/>
<path d="M22.475 14C22.475 17.576 19.576 20.475 16 20.475C12.424 20.475 9.525 17.576 9.525 14C9.525 10.424 12.424 7.525 16 7.525C19.576 7.525 22.475 10.424 22.475 14Z" fill="white" stroke="#BDE4EA" stroke-width="0.8"/>
<path d="M13.25 14L15.1711 15.9211C15.2492 15.9992 15.3758 15.9992 15.4539 15.9211L19.4375 11.9375" stroke="#EF4550" stroke-width="0.8" stroke-linecap="round"/>
<ellipse cx="16" cy="14" rx="6.875" ry="6.875" stroke="#0C9AB0" stroke-width="0.8"/>
</g>
<defs>
<clipPath id="clip0_339_8072">
<rect width="32" height="32" fill="white" transform="translate(0.5)"/>
</clipPath>
</defs>
</svg>
