<svg xmlns="http://www.w3.org/2000/svg" width="32" height="32" viewBox="0 0 32 32" fill="none">
<path d="M2.69971 12.3014V3.67616C2.69971 3.36422 2.82422 3.06506 3.04585 2.84449C3.26749 2.62392 3.56809 2.5 3.88153 2.5H27.5179C27.8313 2.5 28.1319 2.62392 28.3536 2.84449C28.5752 3.06506 28.6997 3.36422 28.6997 3.67616V12.3014C28.6997 24.6533 18.1659 28.7456 16.0626 29.4396C15.8274 29.5201 15.572 29.5201 15.3369 29.4396C13.2335 28.7456 2.69971 24.6533 2.69971 12.3014Z" fill="white"/>
<path fill-rule="evenodd" clip-rule="evenodd" d="M3.88162 2.9001C3.67365 2.9001 3.47459 2.98234 3.32811 3.12811C3.18171 3.27382 3.0998 3.47103 3.0998 3.67626V12.3015C3.0998 24.3668 13.3791 28.3725 15.4623 29.0598L15.4666 29.0612C15.6177 29.113 15.7819 29.113 15.933 29.0613L15.9373 29.0598L15.9373 29.0598C18.0205 28.3725 28.2998 24.3668 28.2998 12.3015V3.67626C28.2998 3.47103 28.2179 3.27382 28.0715 3.12811C27.925 2.98234 27.726 2.9001 27.518 2.9001H3.88162ZM2.76379 2.56107C3.06058 2.26569 3.46272 2.1001 3.88162 2.1001H27.518C27.9369 2.1001 28.339 2.26569 28.6358 2.56107C28.9327 2.85651 29.0998 3.25762 29.0998 3.67626V12.3015C29.0998 24.936 18.3184 29.1162 16.19 29.8189C15.8723 29.9272 15.5274 29.9272 15.2096 29.8189C13.0812 29.1162 2.2998 24.936 2.2998 12.3015V3.67626C2.2998 3.25761 2.46693 2.85651 2.76379 2.56107Z" fill="#0C9AB0"/>
<path d="M4.69971 12.4863V5.45835C4.69971 5.20418 4.80506 4.96042 4.9926 4.7807C5.18014 4.60097 5.43449 4.5 5.69971 4.5H25.6997C25.9649 4.5 26.2193 4.60097 26.4068 4.7807C26.5944 4.96042 26.6997 5.20418 26.6997 5.45835V12.4863C26.6997 22.5508 17.7865 26.8853 16.0067 27.4508C15.8078 27.5164 15.5916 27.5164 15.3927 27.4508C13.613 26.8853 4.69971 22.5508 4.69971 12.4863Z" fill="#E9F6F8"/>
<path fill-rule="evenodd" clip-rule="evenodd" d="M5.6998 4.9001C5.53531 4.9001 5.38081 4.96288 5.26946 5.06959C5.1587 5.17574 5.0998 5.31599 5.0998 5.45845V12.4864C5.0998 16.4444 6.512 19.4871 8.31265 21.7511C8.45016 21.924 8.42147 22.1756 8.24857 22.3132C8.07567 22.4507 7.82404 22.422 7.68653 22.2491C5.79041 19.865 4.2998 16.651 4.2998 12.4864V5.45845C4.2998 5.09257 4.45162 4.7453 4.71593 4.492C4.97966 4.23925 5.33386 4.1001 5.6998 4.1001H25.6998C26.0657 4.1001 26.4199 4.23925 26.6837 4.492C26.948 4.7453 27.0998 5.09257 27.0998 5.45845V12.4864C27.0998 13.6014 26.9929 14.6495 26.7994 15.6327C26.7567 15.8494 26.5464 15.9906 26.3297 15.9479C26.1129 15.9052 25.9718 15.6949 26.0144 15.4782C26.1979 14.5463 26.2998 13.55 26.2998 12.4864V5.45845C26.2998 5.31599 26.2409 5.17574 26.1301 5.06959C26.0188 4.96288 25.8643 4.9001 25.6998 4.9001H5.6998Z" fill="#91D2DC"/>
<path d="M30.1997 23.5C30.1997 26.8137 27.5134 29.5 24.1997 29.5C20.886 29.5 18.1997 26.8137 18.1997 23.5C18.1997 20.1863 20.886 17.5 24.1997 17.5C27.5134 17.5 30.1997 20.1863 30.1997 23.5Z" fill="white"/>
<path fill-rule="evenodd" clip-rule="evenodd" d="M27.4826 21.2173C27.6389 21.3735 27.6389 21.6267 27.4826 21.7829L23.4826 25.7829C23.3264 25.9392 23.0732 25.9392 22.917 25.7829L20.917 23.7829C20.7608 23.6267 20.7608 23.3735 20.917 23.2173C21.0732 23.061 21.3264 23.061 21.4826 23.2173L23.1998 24.9344L26.917 21.2173C27.0732 21.061 27.3264 21.061 27.4826 21.2173Z" fill="#EF4550"/>
<path fill-rule="evenodd" clip-rule="evenodd" d="M24.1998 17.9001C21.107 17.9001 18.5998 20.4073 18.5998 23.5001C18.5998 26.5929 21.107 29.1001 24.1998 29.1001C24.4207 29.1001 24.5998 29.2792 24.5998 29.5001C24.5998 29.721 24.4207 29.9001 24.1998 29.9001C20.6652 29.9001 17.7998 27.0347 17.7998 23.5001C17.7998 19.9655 20.6652 17.1001 24.1998 17.1001C27.7344 17.1001 30.5998 19.9655 30.5998 23.5001C30.5998 26.2873 28.8183 28.6574 26.3331 29.5358C26.1248 29.6094 25.8963 29.5003 25.8227 29.292C25.7491 29.0837 25.8582 28.8552 26.0665 28.7815C28.2421 28.0126 29.7998 25.9377 29.7998 23.5001C29.7998 20.4073 27.2926 17.9001 24.1998 17.9001Z" fill="#0C9AB0"/>
<path d="M4.48166 22.3874L15.3412 20.0277C15.4565 20.0027 29.1568 11.391 29.2592 11.3326C29.8484 10.9964 31.1488 10.0573 31.4377 9.49488C31.5294 9.34266 31.5822 9.16431 31.5822 8.97364C31.5822 8.54798 31.3192 8.18374 30.9469 8.0345C30.493 7.88264 29.9923 7.81778 29.4872 7.81778C29.4483 7.81778 29.4095 7.81826 29.3709 7.81923C28.8657 7.62581 28.3266 7.52881 27.7534 7.52881C27.1801 7.52881 26.6761 7.62435 26.1709 7.81778C25.3328 8.15846 21.8418 10.0583 20.3448 10.8786L6.55052 8.97364L3.45423 10.5052L13.124 14.7313L12.7882 14.9182L3.36753 19.9401C2.81841 20.2329 2.65984 20.9461 3.03324 21.4437L3.45423 22.0048C3.69238 22.3222 4.0938 22.4717 4.48166 22.3874Z" fill="white"/>
<path fill-rule="evenodd" clip-rule="evenodd" d="M10.0075 11.4075C10.0963 11.5554 10.0483 11.7472 9.90042 11.8359L7.24297 13.4304C7.09509 13.5191 6.90329 13.4712 6.81456 13.3233C6.72584 13.1754 6.77379 12.9836 6.92167 12.8949L9.57912 11.3004C9.727 11.2117 9.9188 11.2596 10.0075 11.4075Z" fill="#EF4550"/>
<path fill-rule="evenodd" clip-rule="evenodd" d="M12.1335 11.939C12.2222 12.0869 12.1743 12.2787 12.0264 12.3674L9.36893 13.9619C9.22106 14.0506 9.02925 14.0027 8.94053 13.8548C8.8518 13.7069 8.89975 13.5151 9.04763 13.4264L11.7051 11.8319C11.853 11.7432 12.0448 11.7911 12.1335 11.939Z" fill="#EF4550"/>
<path d="M2.34 16.3598L7.77576 17.4187C7.89369 17.4417 7.91435 17.6017 7.80612 17.6538L3.95193 19.5121C3.91488 19.53 3.87142 19.5285 3.83572 19.508L0.374945 17.5305C0.288332 17.481 0.29183 17.3549 0.381056 17.3103L2.26026 16.3707C2.28491 16.3584 2.31295 16.3545 2.34 16.3598Z" fill="#BDE4EA"/>
<path fill-rule="evenodd" clip-rule="evenodd" d="M22.5261 12.2499C22.619 12.3951 22.5767 12.5883 22.4314 12.6812L20.1556 14.1377C20.0104 14.2307 19.8173 14.1883 19.7243 14.043C19.6313 13.8978 19.6737 13.7047 19.819 13.6117L22.0948 12.1552C22.24 12.0623 22.4331 12.1046 22.5261 12.2499ZM19.1124 14.4346C19.2054 14.5799 19.163 14.773 19.0177 14.866L17.8798 15.5942C17.7346 15.6872 17.5415 15.6448 17.4485 15.4995C17.3556 15.3543 17.398 15.1612 17.5432 15.0682L18.6811 14.34C18.8263 14.247 19.0195 14.2894 19.1124 14.4346Z" fill="#91D2DC"/>
<path d="M30.2535 7.75398L26.9887 9.56446C26.6965 9.74067 26.3168 9.64663 26.1406 9.35442C25.9644 9.0622 26.0584 8.68248 26.3506 8.50627L28.4201 7.52686L30.2535 7.75398Z" fill="#91D2DC"/>
<path fill-rule="evenodd" clip-rule="evenodd" d="M6.37566 8.64903C6.45574 8.60899 6.54618 8.5945 6.63476 8.60753L24.6666 11.2593C24.8372 11.2844 24.9552 11.443 24.9301 11.6136C24.905 11.7842 24.7463 11.9022 24.5757 11.8771L6.60222 9.23396L4.10701 10.4816L6.67212 11.5668C6.83094 11.634 6.90522 11.8172 6.83802 11.9761C6.77083 12.1349 6.58761 12.2092 6.42879 12.142L3.48937 10.8984C3.14573 10.753 3.13047 10.2716 3.46421 10.1048L6.37566 8.64903ZM11.2876 13.8586C11.3548 13.6997 11.538 13.6255 11.6968 13.6927L16.4799 15.7163C16.6387 15.7834 16.713 15.9667 16.6458 16.1255C16.5786 16.2843 16.3954 16.3586 16.2365 16.2914L11.4535 14.2678C11.2947 14.2006 11.2204 14.0174 11.2876 13.8586Z" fill="#0C9AB0"/>
<path fill-rule="evenodd" clip-rule="evenodd" d="M2.34312 16.6784L7.72771 17.7274C7.89698 17.7604 8.06093 17.6499 8.0939 17.4806C8.12688 17.3113 8.01639 17.1474 7.84712 17.1144L2.39995 16.0533C2.30527 16.0348 2.20714 16.0482 2.12086 16.0914L0.241655 17.031C-0.0706355 17.1871 -0.0828795 17.6283 0.220268 17.8015L3.73808 19.8117C3.88781 19.8972 4.07855 19.8452 4.16411 19.6955C4.24967 19.5458 4.19765 19.355 4.04792 19.2695L0.834051 17.433L2.34312 16.6784Z" fill="#0C9AB0"/>
<path fill-rule="evenodd" clip-rule="evenodd" d="M29.7585 7.53568C30.6602 7.54205 31.3462 7.72092 31.7161 8.10845C31.9162 8.31814 32.0123 8.57836 31.9987 8.86178C31.9857 9.135 31.8723 9.40853 31.6966 9.66936C31.492 9.97321 31.0619 10.3738 30.6355 10.7253C30.2022 11.0825 29.7304 11.4233 29.4139 11.6038C29.4139 11.6038 29.4105 11.606 29.4028 11.6108C29.3824 11.6235 29.3337 11.6538 29.2528 11.7044C29.147 11.7706 28.9946 11.866 28.8023 11.9866C28.4177 12.2276 27.8737 12.5689 27.2234 12.9769L27.0695 13.0735C25.7883 13.8772 24.1297 14.9177 22.4708 15.9573C20.7446 17.039 19.0178 18.1198 17.7153 18.9318C17.0641 19.3377 16.5185 19.6767 16.132 19.9151C15.9389 20.0342 15.7848 20.1287 15.6768 20.1939C15.623 20.2264 15.5795 20.2524 15.5478 20.2708C15.5323 20.2798 15.5177 20.2881 15.5053 20.2948C15.4994 20.2981 15.4914 20.3023 15.4827 20.3065C15.4801 20.3078 15.4765 20.3095 15.4722 20.3114C15.4694 20.3127 15.4663 20.314 15.463 20.3154C15.4587 20.3172 15.4367 20.3266 15.4075 20.3329L4.54789 22.6926C4.04077 22.8028 3.51586 22.6073 3.2044 22.1923L2.78341 21.6312C2.29501 20.9803 2.5025 20.0474 3.22058 19.6646L12.6388 14.644L12.9722 14.4585L13.2757 15.0043L12.935 15.1938L3.51435 20.2157C3.13419 20.4184 3.02453 20.912 3.28293 21.2564L3.70392 21.8175C3.86877 22.0371 4.1467 22.1407 4.41529 22.0823L15.2322 19.7319L15.2341 19.7308C15.261 19.7151 15.301 19.6913 15.3539 19.6594C15.4593 19.5957 15.6115 19.5025 15.8042 19.3836C16.1894 19.146 16.7339 18.8077 17.3849 18.4018C18.6868 17.5903 20.4131 16.5098 22.1392 15.4281C23.7253 14.4342 25.3152 13.4368 26.5747 12.6466C28.0504 11.7208 29.0728 11.0795 29.1044 11.0614C29.3771 10.9058 29.8179 10.5899 30.2383 10.2434C30.6655 9.89122 31.0301 9.54106 31.1787 9.32049C31.3149 9.11825 31.3691 8.95435 31.375 8.8319C31.3803 8.71965 31.3467 8.62596 31.2643 8.53963C31.076 8.34227 30.6041 8.16001 29.7083 8.16001H29.6576L29.6095 8.14398C29.1852 8.00253 28.5941 7.89239 27.9819 7.87026C27.3669 7.84804 26.7592 7.91571 26.2884 8.10709C25.3456 8.49035 22.5521 10.0235 20.9237 10.9172C20.7694 11.0019 20.6256 11.0808 20.4947 11.1525L20.1946 10.6048C20.3267 10.5325 20.4731 10.4521 20.6311 10.3654C22.2474 9.47809 25.073 7.92702 26.0532 7.52856C26.6365 7.29145 27.3419 7.22223 28.0044 7.24617C28.6478 7.26941 29.2775 7.38155 29.7585 7.53568ZM15.2749 19.7226L15.2742 19.7228L15.2749 19.7226Z" fill="#0C9AB0"/>
</svg>