<svg xmlns="http://www.w3.org/2000/svg" width="60" height="60" viewBox="0 0 60 60">
    <g fill="none" fill-rule="evenodd">
        <g>
            <g transform="translate(-780 -787) translate(780 787)">
                <circle cx="30" cy="30" r="30" fill="#E9F6F8"/>
                <path fill="#FFF" fill-rule="nonzero" stroke="#02647A" stroke-width="1.313" d="M48.75 26.25H37.312L21 9.375h-4.125l9.938 16.875H15l-5.625-5.625H7.5L9.375 30 7.5 39.375h1.875L15 33.75h11.813l-9.938 16.875H21L37.313 33.75H48.75c2.063 0 3.75-1.688 3.75-3.75 0-2.063-1.688-3.75-3.75-3.75z"/>
                <path fill="#EF4050" d="M17.813 30c-.517 0-.938.421-.938.938 0 .516.421.937.938.937.516 0 .937-.421.937-.938 0-.516-.421-.937-.938-.937zM23.438 30c-.517 0-.938.421-.938.938 0 .516.421.937.938.937.516 0 .937-.421.937-.938 0-.516-.421-.937-.938-.937zM27.188 30c-.517 0-.938.421-.938.938 0 .516.421.937.938.937.516 0 .937-.421.937-.938 0-.516-.421-.937-.938-.937z"/>
                <g stroke-width="1.313" transform="translate(30 30)">
                    <circle cx="8.438" cy="8.438" r="8.438" fill="#C2DADF" stroke="#016479"/>
                    <path stroke="#EF4050" stroke-linecap="round" d="M7.5 3.75L7.5 9.375 13.125 9.375"/>
                </g>
            </g>
        </g>
    </g>
</svg>